<?xml version="1.0" encoding="utf-8"?>
<!-- Generator: Adobe Illustrator 22.1.0, SVG Export Plug-In . SVG Version: 6.00 Build 0)  -->
<svg version="1.1" id="Capa_1" xmlns="http://www.w3.org/2000/svg" xmlns:xlink="http://www.w3.org/1999/xlink" x="0px" y="0px"
	 viewBox="0 0 595.3 133" style="enable-background:new 0 0 595.3 133;" xml:space="preserve">
<style type="text/css">
	.st0{fill:#FFFFFF;}
</style>
<g>
	<g>
		<path class="st0" d="M489.5,133c-0.5,0-1.1-0.3-1.4-0.7l-87-125.2v124.2c0,0.9-0.8,1.7-1.7,1.7c-0.9,0-1.7-0.8-1.7-1.7V1.7
			c0-0.7,0.5-1.4,1.2-1.6c0.7-0.2,1.5,0,1.9,0.7l87,125.2V2.2c0-0.9,0.8-1.7,1.7-1.7s1.7,0.8,1.7,1.7v129.1c0,0.7-0.5,1.4-1.2,1.6
			C489.9,133,489.7,133,489.5,133z"/>
	</g>
	<g>
		<path class="st0" d="M593.6,3.6h-66.4c-0.9,0-1.7-0.8-1.7-1.7s0.8-1.7,1.7-1.7h66.4c0.9,0,1.7,0.8,1.7,1.7S594.5,3.6,593.6,3.6z"
			/>
		<path class="st0" d="M593.6,68.2h-66.3c-0.9,0-1.7-0.8-1.7-1.7c0-0.9,0.8-1.7,1.7-1.7h66.3c0.9,0,1.7,0.8,1.7,1.7
			C595.3,67.4,594.5,68.2,593.6,68.2z"/>
		<path class="st0" d="M593.6,132.9h-66.4c-0.4,0-0.9-0.2-1.2-0.5c-0.3-0.3-0.5-0.7-0.5-1.2l0.1-112.7c0-0.9,0.8-1.7,1.7-1.7
			c0,0,0,0,0,0c0.9,0,1.7,0.8,1.7,1.7l-0.1,111h64.8c0.9,0,1.7,0.8,1.7,1.7C595.3,132.1,594.5,132.9,593.6,132.9z"/>
	</g>
	<path class="st0" d="M297.7,133c-1.2,0-2.3,0-3.5-0.1c-36.3-1.8-64.3-33.1-62.5-69.8c0.9-17.8,8.6-34.2,21.8-46.2
		c13.1-11.8,29.9-17.8,47.4-16.9c15.2,0.8,29.1,6.5,40.3,16.5c0.7,0.6,0.8,1.7,0.1,2.4c-0.6,0.7-1.7,0.8-2.4,0.1
		c-10.6-9.5-23.8-14.9-38.2-15.6c-16.6-0.9-32.5,4.8-44.9,16c-12.5,11.3-19.9,26.9-20.7,43.8c-1.7,34.8,24.9,64.5,59.3,66.2
		c16.6,0.9,32.5-4.8,44.9-16c12.5-11.3,19.9-26.9,20.7-43.8c0.7-13.3-2.7-26.3-10-37.6c-0.5-0.8-0.3-1.8,0.5-2.3
		c0.8-0.5,1.8-0.3,2.3,0.5c7.6,11.9,11.3,25.6,10.5,39.6c-0.9,17.8-8.6,34.2-21.8,46.2C329.4,127.1,313.9,133,297.7,133z"/>
	<g>
		<path class="st0" d="M93,95.1H32.7c-0.9,0-1.7-0.8-1.7-1.7c0-0.9,0.8-1.7,1.7-1.7H93c0.9,0,1.7,0.8,1.7,1.7
			C94.7,94.3,93.9,95.1,93,95.1z"/>
		<path class="st0" d="M108.4,133c-0.7,0-1.3-0.4-1.6-1.1L54,2.3c-0.4-0.9,0.1-1.9,0.9-2.2c0.9-0.4,1.9,0.1,2.2,0.9L110,130.7
			c0.4,0.9-0.1,1.9-0.9,2.2C108.9,133,108.7,133,108.4,133z"/>
		<path class="st0" d="M1.7,132.6c-0.2,0-0.4,0-0.7-0.1c-0.9-0.4-1.3-1.4-0.9-2.2L54,1c0.4-0.9,1.4-1.3,2.2-0.9
			c0.9,0.4,1.3,1.4,0.9,2.2L3.3,131.6C3,132.2,2.4,132.6,1.7,132.6z"/>
	</g>
	<g>
		<path class="st0" d="M138,133c-0.9,0-1.7-0.8-1.7-1.7V1.7c0-0.9,0.8-1.7,1.7-1.7s1.7,0.8,1.7,1.7v129.7
			C139.7,132.3,138.9,133,138,133z"/>
		<path class="st0" d="M203.8,133h-50.5c-0.9,0-1.7-0.8-1.7-1.7s0.8-1.7,1.7-1.7h50.5c0.9,0,1.7,0.8,1.7,1.7S204.7,133,203.8,133z"
			/>
	</g>
</g>
</svg>
