<?xml version="1.0" encoding="utf-8"?>
<!-- Generator: Adobe Illustrator 23.0.3, SVG Export Plug-In . SVG Version: 6.00 Build 0)  -->
<svg version="1.1" id="Capa_1" xmlns="http://www.w3.org/2000/svg" xmlns:xlink="http://www.w3.org/1999/xlink" x="0px" y="0px"
	 viewBox="0 0 500 500" style="enable-background:new 0 0 500 500;" xml:space="preserve">
<style type="text/css">
	.st0{display:none;opacity:0.5;}
	.st1{display:inline;opacity:0.5;}
	.st2{fill:#FFFFFF;}
	.st3{fill:none;stroke:#FFFFFF;stroke-width:40;stroke-linecap:round;stroke-linejoin:round;stroke-miterlimit:10;}
</style>
<g class="st0">
	<g class="st1">
		<rect x="-389.5" y="-261.4" class="st2" width="64" height="63.9"/>
		<path d="M-326-260.9v63h-63v-63H-326 M-325-261.9h-65v64.9h65V-261.9L-325-261.9z"/>
	</g>
	<g class="st1">
		<rect x="-325.6" y="-261.4" class="st2" width="64" height="63.9"/>
		<path d="M-262.1-260.9v63h-63v-63H-262.1 M-261.1-261.9H-326v64.9h65v-64.9H-261.1z"/>
	</g>
	<g class="st1">
		<rect x="-261.6" y="-261.4" class="st2" width="64" height="63.9"/>
		<path d="M-198.1-260.9v63h-63v-63H-198.1 M-197.1-261.9h-65v64.9h65V-261.9L-197.1-261.9z"/>
	</g>
	<g class="st1">
		<rect x="-197.6" y="-261.4" class="st2" width="64" height="63.9"/>
		<path d="M-134.2-260.9v63h-63v-63H-134.2 M-133.2-261.9h-65v64.9h65V-261.9L-133.2-261.9z"/>
	</g>
	<g class="st1">
		<rect x="-133.7" y="-261.4" class="st2" width="64" height="63.9"/>
		<path d="M-70.2-260.9v63h-63v-63H-70.2 M-69.2-261.9h-65v64.9h65V-261.9L-69.2-261.9z"/>
	</g>
	<g class="st1">
		<rect x="-69.8" y="-261.4" class="st2" width="64" height="63.9"/>
		<path d="M-6.3-260.9v63h-63v-63H-6.3 M-5.3-261.9h-65v64.9h65V-261.9L-5.3-261.9z"/>
	</g>
	<g class="st1">
		<rect x="-5.8" y="-261.4" class="st2" width="64" height="63.9"/>
		<path d="M57.7-260.9v63h-63v-63H57.7 M58.7-261.9h-65v64.9h65V-261.9L58.7-261.9z"/>
	</g>
	<g class="st1">
		<rect x="58.1" y="-261.4" class="st2" width="64" height="63.9"/>
		<path d="M121.6-260.9v63h-63v-63H121.6 M122.6-261.9h-65v64.9h65V-261.9L122.6-261.9z"/>
	</g>
	<g class="st1">
		<rect x="122.1" y="-261.4" class="st2" width="64" height="63.9"/>
		<path d="M185.6-260.9v63h-63v-63H185.6 M186.6-261.9h-65v64.9h65V-261.9L186.6-261.9z"/>
	</g>
	<g class="st1">
		<rect x="186" y="-261.4" class="st2" width="64" height="63.9"/>
		<path d="M249.5-260.9v63h-63v-63H249.5 M250.5-261.9h-65v64.9h65V-261.9L250.5-261.9z"/>
	</g>
	<g class="st1">
		<rect x="250" y="-261.4" class="st2" width="64" height="63.9"/>
		<path d="M313.5-260.9v63h-63v-63H313.5 M314.5-261.9h-65v64.9h65V-261.9L314.5-261.9z"/>
	</g>
	<g class="st1">
		<rect x="313.9" y="-261.4" class="st2" width="64" height="63.9"/>
		<path d="M377.4-260.9v63h-63v-63H377.4 M378.4-261.9h-65v64.9h65V-261.9L378.4-261.9z"/>
	</g>
	<g class="st1">
		<rect x="377.9" y="-261.4" class="st2" width="64" height="63.9"/>
		<path d="M441.4-260.9v63h-63v-63H441.4 M442.4-261.9h-65v64.9h65V-261.9L442.4-261.9z"/>
	</g>
	<g class="st1">
		<rect x="441.8" y="-261.4" class="st2" width="64" height="63.9"/>
		<path d="M505.3-260.9v63h-63v-63H505.3 M506.3-261.9h-65v64.9h65V-261.9L506.3-261.9z"/>
	</g>
	<g class="st1">
		<rect x="505.8" y="-261.4" class="st2" width="64" height="63.9"/>
		<path d="M569.2-260.9v63h-63v-63H569.2 M570.2-261.9h-65v64.9h65V-261.9L570.2-261.9z"/>
	</g>
	<g class="st1">
		<rect x="569.7" y="-261.4" class="st2" width="64" height="63.9"/>
		<path d="M633.2-260.9v63h-63v-63H633.2 M634.2-261.9h-65v64.9h65V-261.9L634.2-261.9z"/>
	</g>
	<g class="st1">
		<rect x="633.7" y="-261.4" class="st2" width="64" height="63.9"/>
		<path d="M697.2-260.9v63h-63v-63H697.2 M698.2-261.9h-65v64.9h65V-261.9L698.2-261.9z"/>
	</g>
	<g class="st1">
		<rect x="697.6" y="-261.4" class="st2" width="64" height="63.9"/>
		<path d="M761.1-260.9v63h-63v-63H761.1 M762.1-261.9h-65v64.9h65V-261.9L762.1-261.9z"/>
	</g>
	<g class="st1">
		<rect x="761.6" y="-261.4" class="st2" width="64" height="63.9"/>
		<path d="M825.1-260.9v63h-63v-63H825.1 M826.1-261.9h-65v64.9h65V-261.9L826.1-261.9z"/>
	</g>
	<g class="st1">
		<rect x="825.5" y="-261.4" class="st2" width="64" height="63.9"/>
		<path d="M889-260.9v63h-63v-63H889 M890-261.9h-65v64.9h65V-261.9L890-261.9z"/>
	</g>
	<g class="st1">
		<rect x="-389.5" y="-197.5" class="st2" width="64" height="63.9"/>
		<path d="M-326-197v62.9h-63V-197H-326 M-325-198h-65v65h65V-198L-325-198z"/>
	</g>
	<g class="st1">
		<rect x="-325.6" y="-197.5" class="st2" width="64" height="63.9"/>
		<path d="M-262.1-197v62.9h-63V-197H-262.1 M-261.1-198H-326v65h65v-65C-261-198-261.1-198-261.1-198z"/>
	</g>
	<g class="st1">
		<rect x="-261.6" y="-197.5" class="st2" width="64" height="63.9"/>
		<path d="M-198.1-197v62.9h-63V-197H-198.1 M-197.1-198h-65v65h65V-198L-197.1-198z"/>
	</g>
	<g class="st1">
		<rect x="-197.6" y="-197.5" class="st2" width="64" height="63.9"/>
		<path d="M-134.2-197v62.9h-63V-197H-134.2 M-133.2-198h-65v65h65V-198L-133.2-198z"/>
	</g>
	<g class="st1">
		<rect x="-133.7" y="-197.5" class="st2" width="64" height="63.9"/>
		<path d="M-70.2-197v62.9h-63V-197H-70.2 M-69.2-198h-65v65h65V-198L-69.2-198z"/>
	</g>
	<g class="st1">
		<rect x="-69.8" y="-197.5" class="st2" width="64" height="63.9"/>
		<path d="M-6.3-197v62.9h-63V-197H-6.3 M-5.3-198h-65v65h65V-198L-5.3-198z"/>
	</g>
	<g class="st1">
		<rect x="-5.8" y="-197.5" class="st2" width="64" height="63.9"/>
		<path d="M57.7-197v62.9h-63V-197H57.7 M58.7-198h-65v65h65V-198L58.7-198z"/>
	</g>
	<g class="st1">
		<rect x="58.1" y="-197.5" class="st2" width="64" height="63.9"/>
		<path d="M121.6-197v62.9h-63V-197H121.6 M122.6-198h-65v65h65V-198L122.6-198z"/>
	</g>
	<g class="st1">
		<rect x="122.1" y="-197.5" class="st2" width="64" height="63.9"/>
		<path d="M185.6-197v62.9h-63V-197H185.6 M186.6-198h-65v65h65V-198L186.6-198z"/>
	</g>
	<g class="st1">
		<rect x="186" y="-197.5" class="st2" width="64" height="63.9"/>
		<path d="M249.5-197v62.9h-63V-197H249.5 M250.5-198h-65v65h65V-198L250.5-198z"/>
	</g>
	<g class="st1">
		<rect x="250" y="-197.5" class="st2" width="64" height="63.9"/>
		<path d="M313.5-197v62.9h-63V-197H313.5 M314.5-198h-65v65h65V-198L314.5-198z"/>
	</g>
	<g class="st1">
		<rect x="313.9" y="-197.5" class="st2" width="64" height="63.9"/>
		<path d="M377.4-197v62.9h-63V-197H377.4 M378.4-198h-65v65h65V-198L378.4-198z"/>
	</g>
	<g class="st1">
		<rect x="377.9" y="-197.5" class="st2" width="64" height="63.9"/>
		<path d="M441.4-197v62.9h-63V-197H441.4 M442.4-198h-65v65h65V-198L442.4-198z"/>
	</g>
	<g class="st1">
		<rect x="441.8" y="-197.5" class="st2" width="64" height="63.9"/>
		<path d="M505.3-197v62.9h-63V-197H505.3 M506.3-198h-65v65h65V-198L506.3-198z"/>
	</g>
	<g class="st1">
		<rect x="505.8" y="-197.5" class="st2" width="64" height="63.9"/>
		<path d="M569.2-197v62.9h-63V-197H569.2 M570.2-198h-65v65h65V-198L570.2-198z"/>
	</g>
	<g class="st1">
		<rect x="569.7" y="-197.5" class="st2" width="64" height="63.9"/>
		<path d="M633.2-197v62.9h-63V-197H633.2 M634.2-198h-65v65h65V-198L634.2-198z"/>
	</g>
	<g class="st1">
		<rect x="633.7" y="-197.5" class="st2" width="64" height="63.9"/>
		<path d="M697.2-197v62.9h-63V-197H697.2 M698.2-198h-65v65h65V-198L698.2-198z"/>
	</g>
	<g class="st1">
		<rect x="697.6" y="-197.5" class="st2" width="64" height="63.9"/>
		<path d="M761.1-197v62.9h-63V-197H761.1 M762.1-198h-65v65h65V-198L762.1-198z"/>
	</g>
	<g class="st1">
		<rect x="761.6" y="-197.5" class="st2" width="64" height="63.9"/>
		<path d="M825.1-197v62.9h-63V-197H825.1 M826.1-198h-65v65h65V-198L826.1-198z"/>
	</g>
	<g class="st1">
		<rect x="825.5" y="-197.5" class="st2" width="64" height="63.9"/>
		<path d="M889-197v62.9h-63V-197H889 M890-198h-65v65h65V-198L890-198z"/>
	</g>
	<g class="st1">
		<rect x="-389.5" y="-133.5" class="st2" width="64" height="63.9"/>
		<path d="M-326-133v62.9h-63V-133H-326 M-325-134h-65v65h65V-134L-325-134z"/>
	</g>
	<g class="st1">
		<rect x="-325.6" y="-133.5" class="st2" width="64" height="63.9"/>
		<path d="M-262.1-133v62.9h-63V-133H-262.1 M-261.1-134H-326v65h65v-65C-261-134-261.1-134-261.1-134z"/>
	</g>
	<g class="st1">
		<rect x="-261.6" y="-133.5" class="st2" width="64" height="63.9"/>
		<path d="M-198.1-133v62.9h-63V-133H-198.1 M-197.1-134h-65v65h65V-134L-197.1-134z"/>
	</g>
	<g class="st1">
		<rect x="-197.6" y="-133.5" class="st2" width="64" height="63.9"/>
		<path d="M-134.2-133v62.9h-63V-133H-134.2 M-133.2-134h-65v65h65V-134L-133.2-134z"/>
	</g>
	<g class="st1">
		<rect x="-133.7" y="-133.5" class="st2" width="64" height="63.9"/>
		<path d="M-70.2-133v62.9h-63V-133H-70.2 M-69.2-134h-65v65h65V-134L-69.2-134z"/>
	</g>
	<g class="st1">
		<rect x="-69.8" y="-133.5" class="st2" width="64" height="63.9"/>
		<path d="M-6.3-133v62.9h-63V-133H-6.3 M-5.3-134h-65v65h65V-134L-5.3-134z"/>
	</g>
	<g class="st1">
		<rect x="-5.8" y="-133.5" class="st2" width="64" height="63.9"/>
		<path d="M57.7-133v62.9h-63V-133H57.7 M58.7-134h-65v65h65V-134L58.7-134z"/>
	</g>
	<g class="st1">
		<rect x="58.1" y="-133.5" class="st2" width="64" height="63.9"/>
		<path d="M121.6-133v62.9h-63V-133H121.6 M122.6-134h-65v65h65V-134L122.6-134z"/>
	</g>
	<g class="st1">
		<rect x="122.1" y="-133.5" class="st2" width="64" height="63.9"/>
		<path d="M185.6-133v62.9h-63V-133H185.6 M186.6-134h-65v65h65V-134L186.6-134z"/>
	</g>
	<g class="st1">
		<rect x="186" y="-133.5" class="st2" width="64" height="63.9"/>
		<path d="M249.5-133v62.9h-63V-133H249.5 M250.5-134h-65v65h65V-134L250.5-134z"/>
	</g>
	<g class="st1">
		<rect x="250" y="-133.5" class="st2" width="64" height="63.9"/>
		<path d="M313.5-133v62.9h-63V-133H313.5 M314.5-134h-65v65h65V-134L314.5-134z"/>
	</g>
	<g class="st1">
		<rect x="313.9" y="-133.5" class="st2" width="64" height="63.9"/>
		<path d="M377.4-133v62.9h-63V-133H377.4 M378.4-134h-65v65h65V-134L378.4-134z"/>
	</g>
	<g class="st1">
		<rect x="377.9" y="-133.5" class="st2" width="64" height="63.9"/>
		<path d="M441.4-133v62.9h-63V-133H441.4 M442.4-134h-65v65h65V-134L442.4-134z"/>
	</g>
	<g class="st1">
		<rect x="441.8" y="-133.5" class="st2" width="64" height="63.9"/>
		<path d="M505.3-133v62.9h-63V-133H505.3 M506.3-134h-65v65h65V-134L506.3-134z"/>
	</g>
	<g class="st1">
		<rect x="505.8" y="-133.5" class="st2" width="64" height="63.9"/>
		<path d="M569.2-133v62.9h-63V-133H569.2 M570.2-134h-65v65h65V-134L570.2-134z"/>
	</g>
	<g class="st1">
		<rect x="569.7" y="-133.5" class="st2" width="64" height="63.9"/>
		<path d="M633.2-133v62.9h-63V-133H633.2 M634.2-134h-65v65h65V-134L634.2-134z"/>
	</g>
	<g class="st1">
		<rect x="633.7" y="-133.5" class="st2" width="64" height="63.9"/>
		<path d="M697.2-133v62.9h-63V-133H697.2 M698.2-134h-65v65h65V-134L698.2-134z"/>
	</g>
	<g class="st1">
		<rect x="697.6" y="-133.5" class="st2" width="64" height="63.9"/>
		<path d="M761.1-133v62.9h-63V-133H761.1 M762.1-134h-65v65h65V-134L762.1-134z"/>
	</g>
	<g class="st1">
		<rect x="761.6" y="-133.5" class="st2" width="64" height="63.9"/>
		<path d="M825.1-133v62.9h-63V-133H825.1 M826.1-134h-65v65h65V-134L826.1-134z"/>
	</g>
	<g class="st1">
		<rect x="825.5" y="-133.5" class="st2" width="64" height="63.9"/>
		<path d="M889-133v62.9h-63V-133H889 M890-134h-65v65h65V-134L890-134z"/>
	</g>
	<g class="st1">
		<rect x="-389.5" y="-69.6" class="st2" width="64" height="64"/>
		<path d="M-326-69.1v62.9h-63V-69L-326-69.1 M-325-70.1h-65v65h65V-70.1L-325-70.1z"/>
	</g>
	<g class="st1">
		<rect x="-325.6" y="-69.6" class="st2" width="64" height="64"/>
		<path d="M-262.1-69.1v62.9h-63V-69L-262.1-69.1 M-261.1-70.1H-326v65h65v-65L-261.1-70.1L-261.1-70.1z"/>
	</g>
	<g class="st1">
		<rect x="-261.6" y="-69.6" class="st2" width="64" height="64"/>
		<path d="M-198.1-69.1v62.9h-63V-69L-198.1-69.1 M-197.1-70.1h-65v65h65V-70.1L-197.1-70.1z"/>
	</g>
	<g class="st1">
		<rect x="-197.6" y="-69.6" class="st2" width="64" height="64"/>
		<path d="M-134.2-69.1v62.9h-63V-69L-134.2-69.1 M-133.2-70.1h-65v65h65V-70.1L-133.2-70.1z"/>
	</g>
	<g class="st1">
		<rect x="-133.7" y="-69.6" class="st2" width="64" height="64"/>
		<path d="M-70.2-69.1v62.9h-63V-69L-70.2-69.1 M-69.2-70.1h-65v65h65V-70.1L-69.2-70.1z"/>
	</g>
	<g class="st1">
		<rect x="-69.8" y="-69.6" class="st2" width="64" height="64"/>
		<path d="M-6.3-69.1v62.9h-63V-69L-6.3-69.1 M-5.3-70.1h-65v65h65V-70.1L-5.3-70.1z"/>
	</g>
	<g class="st1">
		<rect x="-5.8" y="-69.6" class="st2" width="64" height="64"/>
		<path d="M57.7-69.1v62.9h-63V-69L57.7-69.1 M58.7-70.1h-65v65h65V-70.1L58.7-70.1z"/>
	</g>
	<g class="st1">
		<rect x="58.1" y="-69.6" class="st2" width="64" height="64"/>
		<path d="M121.6-69.1v62.9h-63V-69L121.6-69.1 M122.6-70.1h-65v65h65V-70.1L122.6-70.1z"/>
	</g>
	<g class="st1">
		<rect x="122.1" y="-69.6" class="st2" width="64" height="64"/>
		<path d="M185.6-69.1v62.9h-63V-69L185.6-69.1 M186.6-70.1h-65v65h65V-70.1L186.6-70.1z"/>
	</g>
	<g class="st1">
		<rect x="186" y="-69.6" class="st2" width="64" height="64"/>
		<path d="M249.5-69.1v62.9h-63V-69L249.5-69.1 M250.5-70.1h-65v65h65V-70.1L250.5-70.1z"/>
	</g>
	<g class="st1">
		<rect x="250" y="-69.6" class="st2" width="64" height="64"/>
		<path d="M313.5-69.1v62.9h-63V-69L313.5-69.1 M314.5-70.1h-65v65h65V-70.1L314.5-70.1z"/>
	</g>
	<g class="st1">
		<rect x="313.9" y="-69.6" class="st2" width="64" height="64"/>
		<path d="M377.4-69.1v62.9h-63V-69L377.4-69.1 M378.4-70.1h-65v65h65V-70.1L378.4-70.1z"/>
	</g>
	<g class="st1">
		<rect x="377.9" y="-69.6" class="st2" width="64" height="64"/>
		<path d="M441.4-69.1v62.9h-63V-69L441.4-69.1 M442.4-70.1h-65v65h65V-70.1L442.4-70.1z"/>
	</g>
	<g class="st1">
		<rect x="441.8" y="-69.6" class="st2" width="64" height="64"/>
		<path d="M505.3-69.1v62.9h-63V-69L505.3-69.1 M506.3-70.1h-65v65h65V-70.1L506.3-70.1z"/>
	</g>
	<g class="st1">
		<rect x="505.8" y="-69.6" class="st2" width="64" height="64"/>
		<path d="M569.2-69.1v62.9h-63V-69L569.2-69.1 M570.2-70.1h-65v65h65V-70.1L570.2-70.1z"/>
	</g>
	<g class="st1">
		<rect x="569.7" y="-69.6" class="st2" width="64" height="64"/>
		<path d="M633.2-69.1v62.9h-63V-69L633.2-69.1 M634.2-70.1h-65v65h65V-70.1L634.2-70.1z"/>
	</g>
	<g class="st1">
		<rect x="633.7" y="-69.6" class="st2" width="64" height="64"/>
		<path d="M697.2-69.1v62.9h-63V-69L697.2-69.1 M698.2-70.1h-65v65h65V-70.1L698.2-70.1z"/>
	</g>
	<g class="st1">
		<rect x="697.6" y="-69.6" class="st2" width="64" height="64"/>
		<path d="M761.1-69.1v62.9h-63V-69L761.1-69.1 M762.1-70.1h-65v65h65V-70.1L762.1-70.1z"/>
	</g>
	<g class="st1">
		<rect x="761.6" y="-69.6" class="st2" width="64" height="64"/>
		<path d="M825.1-69.1v62.9h-63V-69L825.1-69.1 M826.1-70.1h-65v65h65V-70.1L826.1-70.1z"/>
	</g>
	<g class="st1">
		<rect x="825.5" y="-69.6" class="st2" width="64" height="64"/>
		<path d="M889-69.1v62.9h-63V-69L889-69.1 M890-70.1h-65v65h65V-70.1L890-70.1z"/>
	</g>
	<g class="st1">
		<rect x="-389.5" y="-5.6" class="st2" width="64" height="64"/>
		<path d="M-326-5.1v63h-63v-63H-326 M-325-6.1h-65v65h65V-6.1L-325-6.1z"/>
	</g>
	<g class="st1">
		<rect x="-325.6" y="-5.6" class="st2" width="64" height="64"/>
		<path d="M-262.1-5.1v63h-63v-63H-262.1 M-261.1-6.1H-326v65h65v-65L-261.1-6.1L-261.1-6.1z"/>
	</g>
	<g class="st1">
		<rect x="-261.6" y="-5.6" class="st2" width="64" height="64"/>
		<path d="M-198.1-5.1v63h-63v-63H-198.1 M-197.1-6.1h-65v65h65V-6.1L-197.1-6.1z"/>
	</g>
	<g class="st1">
		<rect x="-197.6" y="-5.6" class="st2" width="64" height="64"/>
		<path d="M-134.2-5.1v63h-63v-63H-134.2 M-133.2-6.1h-65v65h65V-6.1L-133.2-6.1z"/>
	</g>
	<g class="st1">
		<rect x="-133.7" y="-5.6" class="st2" width="64" height="64"/>
		<path d="M-70.2-5.1v63h-63v-63H-70.2 M-69.2-6.1h-65v65h65V-6.1L-69.2-6.1z"/>
	</g>
	<g class="st1">
		<rect x="-69.8" y="-5.6" class="st2" width="64" height="64"/>
		<path d="M-6.3-5.1v63h-63v-63H-6.3 M-5.3-6.1h-65v65h65V-6.1L-5.3-6.1z"/>
	</g>
	<g class="st1">
		<rect x="-5.8" y="-5.6" class="st2" width="64" height="64"/>
		<path d="M57.7-5.1v63h-63v-63H57.7 M58.7-6.1h-65v65h65V-6.1L58.7-6.1z"/>
	</g>
	<g class="st1">
		<rect x="58.1" y="-5.6" class="st2" width="64" height="64"/>
		<path d="M121.6-5.1v63h-63v-63H121.6 M122.6-6.1h-65v65h65V-6.1L122.6-6.1z"/>
	</g>
	<g class="st1">
		<rect x="122.1" y="-5.6" class="st2" width="64" height="64"/>
		<path d="M185.6-5.1v63h-63v-63H185.6 M186.6-6.1h-65v65h65V-6.1L186.6-6.1z"/>
	</g>
	<g class="st1">
		<rect x="186" y="-5.6" class="st2" width="64" height="64"/>
		<path d="M249.5-5.1v63h-63v-63H249.5 M250.5-6.1h-65v65h65V-6.1L250.5-6.1z"/>
	</g>
	<g class="st1">
		<rect x="250" y="-5.6" class="st2" width="64" height="64"/>
		<path d="M313.5-5.1v63h-63v-63H313.5 M314.5-6.1h-65v65h65V-6.1L314.5-6.1z"/>
	</g>
	<g class="st1">
		<rect x="313.9" y="-5.6" class="st2" width="64" height="64"/>
		<path d="M377.4-5.1v63h-63v-63H377.4 M378.4-6.1h-65v65h65V-6.1L378.4-6.1z"/>
	</g>
	<g class="st1">
		<rect x="377.9" y="-5.6" class="st2" width="64" height="64"/>
		<path d="M441.4-5.1v63h-63v-63H441.4 M442.4-6.1h-65v65h65V-6.1L442.4-6.1z"/>
	</g>
	<g class="st1">
		<rect x="441.8" y="-5.6" class="st2" width="64" height="64"/>
		<path d="M505.3-5.1v63h-63v-63H505.3 M506.3-6.1h-65v65h65V-6.1L506.3-6.1z"/>
	</g>
	<g class="st1">
		<rect x="505.8" y="-5.6" class="st2" width="64" height="64"/>
		<path d="M569.2-5.1v63h-63v-63H569.2 M570.2-6.1h-65v65h65V-6.1L570.2-6.1z"/>
	</g>
	<g class="st1">
		<rect x="569.7" y="-5.6" class="st2" width="64" height="64"/>
		<path d="M633.2-5.1v63h-63v-63H633.2 M634.2-6.1h-65v65h65V-6.1L634.2-6.1z"/>
	</g>
	<g class="st1">
		<rect x="633.7" y="-5.6" class="st2" width="64" height="64"/>
		<path d="M697.2-5.1v63h-63v-63H697.2 M698.2-6.1h-65v65h65V-6.1L698.2-6.1z"/>
	</g>
	<g class="st1">
		<rect x="697.6" y="-5.6" class="st2" width="64" height="64"/>
		<path d="M761.1-5.1v63h-63v-63H761.1 M762.1-6.1h-65v65h65V-6.1L762.1-6.1z"/>
	</g>
	<g class="st1">
		<rect x="761.6" y="-5.6" class="st2" width="64" height="64"/>
		<path d="M825.1-5.1v63h-63v-63H825.1 M826.1-6.1h-65v65h65V-6.1L826.1-6.1z"/>
	</g>
	<g class="st1">
		<rect x="825.5" y="-5.6" class="st2" width="64" height="64"/>
		<path d="M889-5.1v63h-63v-63H889 M890-6.1h-65v65h65V-6.1L890-6.1z"/>
	</g>
	<g class="st1">
		<rect x="-389.5" y="58.4" class="st2" width="64" height="64"/>
		<path d="M-326,58.9v63h-63v-63H-326 M-325,57.9h-65v65h65V57.9L-325,57.9z"/>
	</g>
	<g class="st1">
		<rect x="-325.6" y="58.4" class="st2" width="64" height="64"/>
		<path d="M-262.1,58.9v63h-63v-63H-262.1 M-261.1,57.9H-326v65h65v-65H-261.1z"/>
	</g>
	<g class="st1">
		<rect x="-261.6" y="58.4" class="st2" width="64" height="64"/>
		<path d="M-198.1,58.9v63h-63v-63H-198.1 M-197.1,57.9h-65v65h65V57.9L-197.1,57.9z"/>
	</g>
	<g class="st1">
		<rect x="-197.6" y="58.4" class="st2" width="64" height="64"/>
		<path d="M-134.2,58.9v63h-63v-63H-134.2 M-133.2,57.9h-65v65h65V57.9L-133.2,57.9z"/>
	</g>
	<g class="st1">
		<rect x="-133.7" y="58.4" class="st2" width="64" height="64"/>
		<path d="M-70.2,58.9v63h-63v-63H-70.2 M-69.2,57.9h-65v65h65V57.9L-69.2,57.9z"/>
	</g>
	<g class="st1">
		<rect x="-69.8" y="58.4" class="st2" width="64" height="64"/>
		<path d="M-6.3,58.9v63h-63v-63H-6.3 M-5.3,57.9h-65v65h65V57.9L-5.3,57.9z"/>
	</g>
	<g class="st1">
		<rect x="-5.8" y="58.4" class="st2" width="64" height="64"/>
		<path d="M57.7,58.9v63h-63v-63H57.7 M58.7,57.9h-65v65h65V57.9L58.7,57.9z"/>
	</g>
	<g class="st1">
		<rect x="58.1" y="58.4" class="st2" width="64" height="64"/>
		<path d="M121.6,58.9v63h-63v-63H121.6 M122.6,57.9h-65v65h65V57.9L122.6,57.9z"/>
	</g>
	<g class="st1">
		<rect x="122.1" y="58.4" class="st2" width="64" height="64"/>
		<path d="M185.6,58.9v63h-63v-63H185.6 M186.6,57.9h-65v65h65V57.9L186.6,57.9z"/>
	</g>
	<g class="st1">
		<rect x="186" y="58.4" class="st2" width="64" height="64"/>
		<path d="M249.5,58.9v63h-63v-63H249.5 M250.5,57.9h-65v65h65V57.9L250.5,57.9z"/>
	</g>
	<g class="st1">
		<rect x="250" y="58.4" class="st2" width="64" height="64"/>
		<path d="M313.5,58.9v63h-63v-63H313.5 M314.5,57.9h-65v65h65V57.9L314.5,57.9z"/>
	</g>
	<g class="st1">
		<rect x="313.9" y="58.4" class="st2" width="64" height="64"/>
		<path d="M377.4,58.9v63h-63v-63H377.4 M378.4,57.9h-65v65h65V57.9L378.4,57.9z"/>
	</g>
	<g class="st1">
		<rect x="377.9" y="58.4" class="st2" width="64" height="64"/>
		<path d="M441.4,58.9v63h-63v-63H441.4 M442.4,57.9h-65v65h65V57.9L442.4,57.9z"/>
	</g>
	<g class="st1">
		<rect x="441.8" y="58.4" class="st2" width="64" height="64"/>
		<path d="M505.3,58.9v63h-63v-63H505.3 M506.3,57.9h-65v65h65V57.9L506.3,57.9z"/>
	</g>
	<g class="st1">
		<rect x="505.8" y="58.4" class="st2" width="64" height="64"/>
		<path d="M569.2,58.9v63h-63v-63H569.2 M570.2,57.9h-65v65h65V57.9L570.2,57.9z"/>
	</g>
	<g class="st1">
		<rect x="569.7" y="58.4" class="st2" width="64" height="64"/>
		<path d="M633.2,58.9v63h-63v-63H633.2 M634.2,57.9h-65v65h65V57.9L634.2,57.9z"/>
	</g>
	<g class="st1">
		<rect x="633.7" y="58.4" class="st2" width="64" height="64"/>
		<path d="M697.2,58.9v63h-63v-63H697.2 M698.2,57.9h-65v65h65V57.9L698.2,57.9z"/>
	</g>
	<g class="st1">
		<rect x="697.6" y="58.4" class="st2" width="64" height="64"/>
		<path d="M761.1,58.9v63h-63v-63H761.1 M762.1,57.9h-65v65h65V57.9L762.1,57.9z"/>
	</g>
	<g class="st1">
		<rect x="761.6" y="58.4" class="st2" width="64" height="64"/>
		<path d="M825.1,58.9v63h-63v-63H825.1 M826.1,57.9h-65v65h65V57.9L826.1,57.9z"/>
	</g>
	<g class="st1">
		<rect x="825.5" y="58.4" class="st2" width="64" height="64"/>
		<path d="M889,58.9v63h-63v-63H889 M890,57.9h-65v65h65V57.9L890,57.9z"/>
	</g>
	<g class="st1">
		<rect x="-389.5" y="122.2" class="st2" width="64" height="64"/>
		<path d="M-326,122.8v63h-63v-63H-326 M-325,121.8h-65v65h65V121.8L-325,121.8z"/>
	</g>
	<g class="st1">
		<rect x="-325.6" y="122.2" class="st2" width="64" height="64"/>
		<path d="M-262.1,122.8v63h-63v-63H-262.1 M-261.1,121.8H-326v65h65v-65H-261.1z"/>
	</g>
	<g class="st1">
		<rect x="-261.6" y="122.2" class="st2" width="64" height="64"/>
		<path d="M-198.1,122.8v63h-63v-63H-198.1 M-197.1,121.8h-65v65h65V121.8L-197.1,121.8z"/>
	</g>
	<g class="st1">
		<rect x="-197.6" y="122.2" class="st2" width="64" height="64"/>
		<path d="M-134.2,122.8v63h-63v-63H-134.2 M-133.2,121.8h-65v65h65V121.8L-133.2,121.8z"/>
	</g>
	<g class="st1">
		<rect x="-133.7" y="122.2" class="st2" width="64" height="64"/>
		<path d="M-70.2,122.8v63h-63v-63H-70.2 M-69.2,121.8h-65v65h65V121.8L-69.2,121.8z"/>
	</g>
	<g class="st1">
		<rect x="-69.8" y="122.2" class="st2" width="64" height="64"/>
		<path d="M-6.3,122.8v63h-63v-63H-6.3 M-5.3,121.8h-65v65h65V121.8L-5.3,121.8z"/>
	</g>
	<g class="st1">
		<rect x="-5.8" y="122.2" class="st2" width="64" height="64"/>
		<path d="M57.7,122.8v63h-63v-63H57.7 M58.7,121.8h-65v65h65V121.8L58.7,121.8z"/>
	</g>
	<g class="st1">
		<rect x="58.1" y="122.2" class="st2" width="64" height="64"/>
		<path d="M121.6,122.8v63h-63v-63H121.6 M122.6,121.8h-65v65h65V121.8L122.6,121.8z"/>
	</g>
	<g class="st1">
		<rect x="122.1" y="122.2" class="st2" width="64" height="64"/>
		<path d="M185.6,122.8v63h-63v-63H185.6 M186.6,121.8h-65v65h65V121.8L186.6,121.8z"/>
	</g>
	<g class="st1">
		<rect x="186" y="122.2" class="st2" width="64" height="64"/>
		<path d="M249.5,122.8v63h-63v-63H249.5 M250.5,121.8h-65v65h65V121.8L250.5,121.8z"/>
	</g>
	<g class="st1">
		<rect x="250" y="122.2" class="st2" width="64" height="64"/>
		<path d="M313.5,122.8v63h-63v-63H313.5 M314.5,121.8h-65v65h65V121.8L314.5,121.8z"/>
	</g>
	<g class="st1">
		<rect x="313.9" y="122.2" class="st2" width="64" height="64"/>
		<path d="M377.4,122.8v63h-63v-63H377.4 M378.4,121.8h-65v65h65V121.8L378.4,121.8z"/>
	</g>
	<g class="st1">
		<rect x="377.9" y="122.2" class="st2" width="64" height="64"/>
		<path d="M441.4,122.8v63h-63v-63H441.4 M442.4,121.8h-65v65h65V121.8L442.4,121.8z"/>
	</g>
	<g class="st1">
		<rect x="441.8" y="122.2" class="st2" width="64" height="64"/>
		<path d="M505.3,122.8v63h-63v-63H505.3 M506.3,121.8h-65v65h65V121.8L506.3,121.8z"/>
	</g>
	<g class="st1">
		<rect x="505.8" y="122.2" class="st2" width="64" height="64"/>
		<path d="M569.2,122.8v63h-63v-63H569.2 M570.2,121.8h-65v65h65V121.8L570.2,121.8z"/>
	</g>
	<g class="st1">
		<rect x="569.7" y="122.2" class="st2" width="64" height="64"/>
		<path d="M633.2,122.8v63h-63v-63H633.2 M634.2,121.8h-65v65h65V121.8L634.2,121.8z"/>
	</g>
	<g class="st1">
		<rect x="633.7" y="122.2" class="st2" width="64" height="64"/>
		<path d="M697.2,122.8v63h-63v-63H697.2 M698.2,121.8h-65v65h65V121.8L698.2,121.8z"/>
	</g>
	<g class="st1">
		<rect x="697.6" y="122.2" class="st2" width="64" height="64"/>
		<path d="M761.1,122.8v63h-63v-63H761.1 M762.1,121.8h-65v65h65V121.8L762.1,121.8z"/>
	</g>
	<g class="st1">
		<rect x="761.6" y="122.2" class="st2" width="64" height="64"/>
		<path d="M825.1,122.8v63h-63v-63H825.1 M826.1,121.8h-65v65h65V121.8L826.1,121.8z"/>
	</g>
	<g class="st1">
		<rect x="825.5" y="122.2" class="st2" width="64" height="64"/>
		<path d="M889,122.8v63h-63v-63H889 M890,121.8h-65v65h65V121.8L890,121.8z"/>
	</g>
	<g class="st1">
		<rect x="-389.5" y="186.2" class="st2" width="64" height="64"/>
		<path d="M-326,186.8v63h-63v-63H-326 M-325,185.8h-65v65h65V185.8L-325,185.8z"/>
	</g>
	<g class="st1">
		<rect x="-325.6" y="186.2" class="st2" width="64" height="64"/>
		<path d="M-262.1,186.8v63h-63v-63H-262.1 M-261.1,185.8H-326v65h65v-65L-261.1,185.8L-261.1,185.8z"/>
	</g>
	<g class="st1">
		<rect x="-261.6" y="186.2" class="st2" width="64" height="64"/>
		<path d="M-198.1,186.8v63h-63v-63H-198.1 M-197.1,185.8h-65v65h65V185.8L-197.1,185.8z"/>
	</g>
	<g class="st1">
		<rect x="-197.6" y="186.2" class="st2" width="64" height="64"/>
		<path d="M-134.2,186.8v63h-63v-63H-134.2 M-133.2,185.8h-65v65h65V185.8L-133.2,185.8z"/>
	</g>
	<g class="st1">
		<rect x="-133.7" y="186.2" class="st2" width="64" height="64"/>
		<path d="M-70.2,186.8v63h-63v-63H-70.2 M-69.2,185.8h-65v65h65V185.8L-69.2,185.8z"/>
	</g>
	<g class="st1">
		<rect x="-69.8" y="186.2" class="st2" width="64" height="64"/>
		<path d="M-6.3,186.8v63h-63v-63H-6.3 M-5.3,185.8h-65v65h65V185.8L-5.3,185.8z"/>
	</g>
	<g class="st1">
		<rect x="-5.8" y="186.2" class="st2" width="64" height="64"/>
		<path d="M57.7,186.8v63h-63v-63H57.7 M58.7,185.8h-65v65h65V185.8L58.7,185.8z"/>
	</g>
	<g class="st1">
		<rect x="58.1" y="186.2" class="st2" width="64" height="64"/>
		<path d="M121.6,186.8v63h-63v-63H121.6 M122.6,185.8h-65v65h65V185.8L122.6,185.8z"/>
	</g>
	<g class="st1">
		<rect x="122.1" y="186.2" class="st2" width="64" height="64"/>
		<path d="M185.6,186.8v63h-63v-63H185.6 M186.6,185.8h-65v65h65V185.8L186.6,185.8z"/>
	</g>
	<g class="st1">
		<rect x="186" y="186.2" class="st2" width="64" height="64"/>
		<path d="M249.5,186.8v63h-63v-63H249.5 M250.5,185.8h-65v65h65V185.8L250.5,185.8z"/>
	</g>
	<g class="st1">
		<rect x="250" y="186.2" class="st2" width="64" height="64"/>
		<path d="M313.5,186.8v63h-63v-63H313.5 M314.5,185.8h-65v65h65V185.8L314.5,185.8z"/>
	</g>
	<g class="st1">
		<rect x="313.9" y="186.2" class="st2" width="64" height="64"/>
		<path d="M377.4,186.8v63h-63v-63H377.4 M378.4,185.8h-65v65h65V185.8L378.4,185.8z"/>
	</g>
	<g class="st1">
		<rect x="377.9" y="186.2" class="st2" width="64" height="64"/>
		<path d="M441.4,186.8v63h-63v-63H441.4 M442.4,185.8h-65v65h65V185.8L442.4,185.8z"/>
	</g>
	<g class="st1">
		<rect x="441.8" y="186.2" class="st2" width="64" height="64"/>
		<path d="M505.3,186.8v63h-63v-63H505.3 M506.3,185.8h-65v65h65V185.8L506.3,185.8z"/>
	</g>
	<g class="st1">
		<rect x="505.8" y="186.2" class="st2" width="64" height="64"/>
		<path d="M569.2,186.8v63h-63v-63H569.2 M570.2,185.8h-65v65h65V185.8L570.2,185.8z"/>
	</g>
	<g class="st1">
		<rect x="569.7" y="186.2" class="st2" width="64" height="64"/>
		<path d="M633.2,186.8v63h-63v-63H633.2 M634.2,185.8h-65v65h65V185.8L634.2,185.8z"/>
	</g>
	<g class="st1">
		<rect x="633.7" y="186.2" class="st2" width="64" height="64"/>
		<path d="M697.2,186.8v63h-63v-63H697.2 M698.2,185.8h-65v65h65V185.8L698.2,185.8z"/>
	</g>
	<g class="st1">
		<rect x="697.6" y="186.2" class="st2" width="64" height="64"/>
		<path d="M761.1,186.8v63h-63v-63H761.1 M762.1,185.8h-65v65h65V185.8L762.1,185.8z"/>
	</g>
	<g class="st1">
		<rect x="761.6" y="186.2" class="st2" width="64" height="64"/>
		<path d="M825.1,186.8v63h-63v-63H825.1 M826.1,185.8h-65v65h65V185.8L826.1,185.8z"/>
	</g>
	<g class="st1">
		<rect x="825.5" y="186.2" class="st2" width="64" height="64"/>
		<path d="M889,186.8v63h-63v-63H889 M890,185.8h-65v65h65V185.8L890,185.8z"/>
	</g>
	<g class="st1">
		<rect x="-389.5" y="250.1" class="st2" width="64" height="64"/>
		<path d="M-326,250.6v63h-63v-63H-326 M-325,249.6h-65v65h65V249.6L-325,249.6z"/>
	</g>
	<g class="st1">
		<rect x="-325.6" y="250.1" class="st2" width="64" height="64"/>
		<path d="M-262.1,250.6v63h-63v-63H-262.1 M-261.1,249.6H-326v65h65v-65H-261.1z"/>
	</g>
	<g class="st1">
		<rect x="-261.6" y="250.1" class="st2" width="64" height="64"/>
		<path d="M-198.1,250.6v63h-63v-63H-198.1 M-197.1,249.6h-65v65h65V249.6L-197.1,249.6z"/>
	</g>
	<g class="st1">
		<rect x="-197.6" y="250.1" class="st2" width="64" height="64"/>
		<path d="M-134.2,250.6v63h-63v-63H-134.2 M-133.2,249.6h-65v65h65V249.6L-133.2,249.6z"/>
	</g>
	<g class="st1">
		<rect x="-133.7" y="250.1" class="st2" width="64" height="64"/>
		<path d="M-70.2,250.6v63h-63v-63H-70.2 M-69.2,249.6h-65v65h65V249.6L-69.2,249.6z"/>
	</g>
	<g class="st1">
		<rect x="-69.8" y="250.1" class="st2" width="64" height="64"/>
		<path d="M-6.3,250.6v63h-63v-63H-6.3 M-5.3,249.6h-65v65h65V249.6L-5.3,249.6z"/>
	</g>
	<g class="st1">
		<rect x="-5.8" y="250.1" class="st2" width="64" height="64"/>
		<path d="M57.7,250.6v63h-63v-63H57.7 M58.7,249.6h-65v65h65V249.6L58.7,249.6z"/>
	</g>
	<g class="st1">
		<rect x="58.1" y="250.1" class="st2" width="64" height="64"/>
		<path d="M121.6,250.6v63h-63v-63H121.6 M122.6,249.6h-65v65h65V249.6L122.6,249.6z"/>
	</g>
	<g class="st1">
		<rect x="122.1" y="250.1" class="st2" width="64" height="64"/>
		<path d="M185.6,250.6v63h-63v-63H185.6 M186.6,249.6h-65v65h65V249.6L186.6,249.6z"/>
	</g>
	<g class="st1">
		<rect x="186" y="250.1" class="st2" width="64" height="64"/>
		<path d="M249.5,250.6v63h-63v-63H249.5 M250.5,249.6h-65v65h65V249.6L250.5,249.6z"/>
	</g>
	<g class="st1">
		<rect x="250" y="250.1" class="st2" width="64" height="64"/>
		<path d="M313.5,250.6v63h-63v-63H313.5 M314.5,249.6h-65v65h65V249.6L314.5,249.6z"/>
	</g>
	<g class="st1">
		<rect x="313.9" y="250.1" class="st2" width="64" height="64"/>
		<path d="M377.4,250.6v63h-63v-63H377.4 M378.4,249.6h-65v65h65V249.6L378.4,249.6z"/>
	</g>
	<g class="st1">
		<rect x="377.9" y="250.1" class="st2" width="64" height="64"/>
		<path d="M441.4,250.6v63h-63v-63H441.4 M442.4,249.6h-65v65h65V249.6L442.4,249.6z"/>
	</g>
	<g class="st1">
		<rect x="441.8" y="250.1" class="st2" width="64" height="64"/>
		<path d="M505.3,250.6v63h-63v-63H505.3 M506.3,249.6h-65v65h65V249.6L506.3,249.6z"/>
	</g>
	<g class="st1">
		<rect x="505.8" y="250.1" class="st2" width="64" height="64"/>
		<path d="M569.2,250.6v63h-63v-63H569.2 M570.2,249.6h-65v65h65V249.6L570.2,249.6z"/>
	</g>
	<g class="st1">
		<rect x="569.7" y="250.1" class="st2" width="64" height="64"/>
		<path d="M633.2,250.6v63h-63v-63H633.2 M634.2,249.6h-65v65h65V249.6L634.2,249.6z"/>
	</g>
	<g class="st1">
		<rect x="633.7" y="250.1" class="st2" width="64" height="64"/>
		<path d="M697.2,250.6v63h-63v-63H697.2 M698.2,249.6h-65v65h65V249.6L698.2,249.6z"/>
	</g>
	<g class="st1">
		<rect x="697.6" y="250.1" class="st2" width="64" height="64"/>
		<path d="M761.1,250.6v63h-63v-63H761.1 M762.1,249.6h-65v65h65V249.6L762.1,249.6z"/>
	</g>
	<g class="st1">
		<rect x="761.6" y="250.1" class="st2" width="64" height="64"/>
		<path d="M825.1,250.6v63h-63v-63H825.1 M826.1,249.6h-65v65h65V249.6L826.1,249.6z"/>
	</g>
	<g class="st1">
		<rect x="825.5" y="250.1" class="st2" width="64" height="64"/>
		<path d="M889,250.6v63h-63v-63H889 M890,249.6h-65v65h65V249.6L890,249.6z"/>
	</g>
	<g class="st1">
		<rect x="-389.5" y="314.1" class="st2" width="64" height="64"/>
		<path d="M-326,314.6v63h-63v-63H-326 M-325,313.6h-65v65h65V313.6L-325,313.6z"/>
	</g>
	<g class="st1">
		<rect x="-325.6" y="314.1" class="st2" width="64" height="64"/>
		<path d="M-262.1,314.6v63h-63v-63H-262.1 M-261.1,313.6H-326v65h65v-65H-261.1z"/>
	</g>
	<g class="st1">
		<rect x="-261.6" y="314.1" class="st2" width="64" height="64"/>
		<path d="M-198.1,314.6v63h-63v-63H-198.1 M-197.1,313.6h-65v65h65V313.6L-197.1,313.6z"/>
	</g>
	<g class="st1">
		<rect x="-197.6" y="314.1" class="st2" width="64" height="64"/>
		<path d="M-134.2,314.6v63h-63v-63H-134.2 M-133.2,313.6h-65v65h65V313.6L-133.2,313.6z"/>
	</g>
	<g class="st1">
		<rect x="-133.7" y="314.1" class="st2" width="64" height="64"/>
		<path d="M-70.2,314.6v63h-63v-63H-70.2 M-69.2,313.6h-65v65h65V313.6L-69.2,313.6z"/>
	</g>
	<g class="st1">
		<rect x="-69.8" y="314.1" class="st2" width="64" height="64"/>
		<path d="M-6.3,314.6v63h-63v-63H-6.3 M-5.3,313.6h-65v65h65V313.6L-5.3,313.6z"/>
	</g>
	<g class="st1">
		<rect x="-5.8" y="314.1" class="st2" width="64" height="64"/>
		<path d="M57.7,314.6v63h-63v-63H57.7 M58.7,313.6h-65v65h65V313.6L58.7,313.6z"/>
	</g>
	<g class="st1">
		<rect x="58.1" y="314.1" class="st2" width="64" height="64"/>
		<path d="M121.6,314.6v63h-63v-63H121.6 M122.6,313.6h-65v65h65V313.6L122.6,313.6z"/>
	</g>
	<g class="st1">
		<rect x="122.1" y="314.1" class="st2" width="64" height="64"/>
		<path d="M185.6,314.6v63h-63v-63H185.6 M186.6,313.6h-65v65h65V313.6L186.6,313.6z"/>
	</g>
	<g class="st1">
		<rect x="186" y="314.1" class="st2" width="64" height="64"/>
		<path d="M249.5,314.6v63h-63v-63H249.5 M250.5,313.6h-65v65h65V313.6L250.5,313.6z"/>
	</g>
	<g class="st1">
		<rect x="250" y="314.1" class="st2" width="64" height="64"/>
		<path d="M313.5,314.6v63h-63v-63H313.5 M314.5,313.6h-65v65h65V313.6L314.5,313.6z"/>
	</g>
	<g class="st1">
		<rect x="313.9" y="314.1" class="st2" width="64" height="64"/>
		<path d="M377.4,314.6v63h-63v-63H377.4 M378.4,313.6h-65v65h65V313.6L378.4,313.6z"/>
	</g>
	<g class="st1">
		<rect x="377.9" y="314.1" class="st2" width="64" height="64"/>
		<path d="M441.4,314.6v63h-63v-63H441.4 M442.4,313.6h-65v65h65V313.6L442.4,313.6z"/>
	</g>
	<g class="st1">
		<rect x="441.8" y="314.1" class="st2" width="64" height="64"/>
		<path d="M505.3,314.6v63h-63v-63H505.3 M506.3,313.6h-65v65h65V313.6L506.3,313.6z"/>
	</g>
	<g class="st1">
		<rect x="505.8" y="314.1" class="st2" width="64" height="64"/>
		<path d="M569.2,314.6v63h-63v-63H569.2 M570.2,313.6h-65v65h65V313.6L570.2,313.6z"/>
	</g>
	<g class="st1">
		<rect x="569.7" y="314.1" class="st2" width="64" height="64"/>
		<path d="M633.2,314.6v63h-63v-63H633.2 M634.2,313.6h-65v65h65V313.6L634.2,313.6z"/>
	</g>
	<g class="st1">
		<rect x="633.7" y="314.1" class="st2" width="64" height="64"/>
		<path d="M697.2,314.6v63h-63v-63H697.2 M698.2,313.6h-65v65h65V313.6L698.2,313.6z"/>
	</g>
	<g class="st1">
		<rect x="697.6" y="314.1" class="st2" width="64" height="64"/>
		<path d="M761.1,314.6v63h-63v-63H761.1 M762.1,313.6h-65v65h65V313.6L762.1,313.6z"/>
	</g>
	<g class="st1">
		<rect x="761.6" y="314.1" class="st2" width="64" height="64"/>
		<path d="M825.1,314.6v63h-63v-63H825.1 M826.1,313.6h-65v65h65V313.6L826.1,313.6z"/>
	</g>
	<g class="st1">
		<rect x="825.5" y="314.1" class="st2" width="64" height="64"/>
		<path d="M889,314.6v63h-63v-63H889 M890,313.6h-65v65h65V313.6L890,313.6z"/>
	</g>
	<g class="st1">
		<rect x="-389.5" y="378.1" class="st2" width="64" height="64"/>
		<path d="M-326,378.6v63h-63v-63H-326 M-325,377.6h-65v65h65V377.6L-325,377.6z"/>
	</g>
	<g class="st1">
		<rect x="-325.6" y="378.1" class="st2" width="64" height="64"/>
		<path d="M-262.1,378.6v63h-63v-63H-262.1 M-261.1,377.6H-326v65h65v-65H-261.1z"/>
	</g>
	<g class="st1">
		<rect x="-261.6" y="378.1" class="st2" width="64" height="64"/>
		<path d="M-198.1,378.6v63h-63v-63H-198.1 M-197.1,377.6h-65v65h65V377.6L-197.1,377.6z"/>
	</g>
	<g class="st1">
		<rect x="-197.6" y="378.1" class="st2" width="64" height="64"/>
		<path d="M-134.2,378.6v63h-63v-63H-134.2 M-133.2,377.6h-65v65h65V377.6L-133.2,377.6z"/>
	</g>
	<g class="st1">
		<rect x="-133.7" y="378.1" class="st2" width="64" height="64"/>
		<path d="M-70.2,378.6v63h-63v-63H-70.2 M-69.2,377.6h-65v65h65V377.6L-69.2,377.6z"/>
	</g>
	<g class="st1">
		<rect x="-69.8" y="378.1" class="st2" width="64" height="64"/>
		<path d="M-6.3,378.6v63h-63v-63H-6.3 M-5.3,377.6h-65v65h65V377.6L-5.3,377.6z"/>
	</g>
	<g class="st1">
		<rect x="-5.8" y="378.1" class="st2" width="64" height="64"/>
		<path d="M57.7,378.6v63h-63v-63H57.7 M58.7,377.6h-65v65h65V377.6L58.7,377.6z"/>
	</g>
	<g class="st1">
		<rect x="58.1" y="378.1" class="st2" width="64" height="64"/>
		<path d="M121.6,378.6v63h-63v-63H121.6 M122.6,377.6h-65v65h65V377.6L122.6,377.6z"/>
	</g>
	<g class="st1">
		<rect x="122.1" y="378.1" class="st2" width="64" height="64"/>
		<path d="M185.6,378.6v63h-63v-63H185.6 M186.6,377.6h-65v65h65V377.6L186.6,377.6z"/>
	</g>
	<g class="st1">
		<rect x="186" y="378.1" class="st2" width="64" height="64"/>
		<path d="M249.5,378.6v63h-63v-63H249.5 M250.5,377.6h-65v65h65V377.6L250.5,377.6z"/>
	</g>
	<g class="st1">
		<rect x="250" y="378.1" class="st2" width="64" height="64"/>
		<path d="M313.5,378.6v63h-63v-63H313.5 M314.5,377.6h-65v65h65V377.6L314.5,377.6z"/>
	</g>
	<g class="st1">
		<rect x="313.9" y="378.1" class="st2" width="64" height="64"/>
		<path d="M377.4,378.6v63h-63v-63H377.4 M378.4,377.6h-65v65h65V377.6L378.4,377.6z"/>
	</g>
	<g class="st1">
		<rect x="377.9" y="378.1" class="st2" width="64" height="64"/>
		<path d="M441.4,378.6v63h-63v-63H441.4 M442.4,377.6h-65v65h65V377.6L442.4,377.6z"/>
	</g>
	<g class="st1">
		<rect x="441.8" y="378.1" class="st2" width="64" height="64"/>
		<path d="M505.3,378.6v63h-63v-63H505.3 M506.3,377.6h-65v65h65V377.6L506.3,377.6z"/>
	</g>
	<g class="st1">
		<rect x="505.8" y="378.1" class="st2" width="64" height="64"/>
		<path d="M569.2,378.6v63h-63v-63H569.2 M570.2,377.6h-65v65h65V377.6L570.2,377.6z"/>
	</g>
	<g class="st1">
		<rect x="569.7" y="378.1" class="st2" width="64" height="64"/>
		<path d="M633.2,378.6v63h-63v-63H633.2 M634.2,377.6h-65v65h65V377.6L634.2,377.6z"/>
	</g>
	<g class="st1">
		<rect x="633.7" y="378.1" class="st2" width="64" height="64"/>
		<path d="M697.2,378.6v63h-63v-63H697.2 M698.2,377.6h-65v65h65V377.6L698.2,377.6z"/>
	</g>
	<g class="st1">
		<rect x="697.6" y="378.1" class="st2" width="64" height="64"/>
		<path d="M761.1,378.6v63h-63v-63H761.1 M762.1,377.6h-65v65h65V377.6L762.1,377.6z"/>
	</g>
	<g class="st1">
		<rect x="761.6" y="378.1" class="st2" width="64" height="64"/>
		<path d="M825.1,378.6v63h-63v-63H825.1 M826.1,377.6h-65v65h65V377.6L826.1,377.6z"/>
	</g>
	<g class="st1">
		<rect x="825.5" y="378.1" class="st2" width="64" height="64"/>
		<path d="M889,378.6v63h-63v-63H889 M890,377.6h-65v65h65V377.6L890,377.6z"/>
	</g>
	<g class="st1">
		<rect x="-389.5" y="441.9" class="st2" width="64" height="64"/>
		<path d="M-326,442.4v63h-63v-63H-326 M-325,441.4h-65v65h65V441.4L-325,441.4z"/>
	</g>
	<g class="st1">
		<rect x="-325.6" y="441.9" class="st2" width="64" height="64"/>
		<path d="M-262.1,442.4v63h-63v-63H-262.1 M-261.1,441.4H-326v65h65v-65H-261.1z"/>
	</g>
	<g class="st1">
		<rect x="-261.6" y="441.9" class="st2" width="64" height="64"/>
		<path d="M-198.1,442.4v63h-63v-63H-198.1 M-197.1,441.4h-65v65h65V441.4L-197.1,441.4z"/>
	</g>
	<g class="st1">
		<rect x="-197.6" y="441.9" class="st2" width="64" height="64"/>
		<path d="M-134.2,442.4v63h-63v-63H-134.2 M-133.2,441.4h-65v65h65V441.4L-133.2,441.4z"/>
	</g>
	<g class="st1">
		<rect x="-133.7" y="441.9" class="st2" width="64" height="64"/>
		<path d="M-70.2,442.4v63h-63v-63H-70.2 M-69.2,441.4h-65v65h65V441.4L-69.2,441.4z"/>
	</g>
	<g class="st1">
		<rect x="-69.8" y="441.9" class="st2" width="64" height="64"/>
		<path d="M-6.3,442.4v63h-63v-63H-6.3 M-5.3,441.4h-65v65h65V441.4L-5.3,441.4z"/>
	</g>
	<g class="st1">
		<rect x="-5.8" y="441.9" class="st2" width="64" height="64"/>
		<path d="M57.7,442.4v63h-63v-63H57.7 M58.7,441.4h-65v65h65V441.4L58.7,441.4z"/>
	</g>
	<g class="st1">
		<rect x="58.1" y="441.9" class="st2" width="64" height="64"/>
		<path d="M121.6,442.4v63h-63v-63H121.6 M122.6,441.4h-65v65h65V441.4L122.6,441.4z"/>
	</g>
	<g class="st1">
		<rect x="122.1" y="441.9" class="st2" width="64" height="64"/>
		<path d="M185.6,442.4v63h-63v-63H185.6 M186.6,441.4h-65v65h65V441.4L186.6,441.4z"/>
	</g>
	<g class="st1">
		<rect x="186" y="441.9" class="st2" width="64" height="64"/>
		<path d="M249.5,442.4v63h-63v-63H249.5 M250.5,441.4h-65v65h65V441.4L250.5,441.4z"/>
	</g>
	<g class="st1">
		<rect x="250" y="441.9" class="st2" width="64" height="64"/>
		<path d="M313.5,442.4v63h-63v-63H313.5 M314.5,441.4h-65v65h65V441.4L314.5,441.4z"/>
	</g>
	<g class="st1">
		<rect x="313.9" y="441.9" class="st2" width="64" height="64"/>
		<path d="M377.4,442.4v63h-63v-63H377.4 M378.4,441.4h-65v65h65V441.4L378.4,441.4z"/>
	</g>
	<g class="st1">
		<rect x="377.9" y="441.9" class="st2" width="64" height="64"/>
		<path d="M441.4,442.4v63h-63v-63H441.4 M442.4,441.4h-65v65h65V441.4L442.4,441.4z"/>
	</g>
	<g class="st1">
		<rect x="441.8" y="441.9" class="st2" width="64" height="64"/>
		<path d="M505.3,442.4v63h-63v-63H505.3 M506.3,441.4h-65v65h65V441.4L506.3,441.4z"/>
	</g>
	<g class="st1">
		<rect x="505.8" y="441.9" class="st2" width="64" height="64"/>
		<path d="M569.2,442.4v63h-63v-63H569.2 M570.2,441.4h-65v65h65V441.4L570.2,441.4z"/>
	</g>
	<g class="st1">
		<rect x="569.7" y="441.9" class="st2" width="64" height="64"/>
		<path d="M633.2,442.4v63h-63v-63H633.2 M634.2,441.4h-65v65h65V441.4L634.2,441.4z"/>
	</g>
	<g class="st1">
		<rect x="633.7" y="441.9" class="st2" width="64" height="64"/>
		<path d="M697.2,442.4v63h-63v-63H697.2 M698.2,441.4h-65v65h65V441.4L698.2,441.4z"/>
	</g>
	<g class="st1">
		<rect x="697.6" y="441.9" class="st2" width="64" height="64"/>
		<path d="M761.1,442.4v63h-63v-63H761.1 M762.1,441.4h-65v65h65V441.4L762.1,441.4z"/>
	</g>
	<g class="st1">
		<rect x="761.6" y="441.9" class="st2" width="64" height="64"/>
		<path d="M825.1,442.4v63h-63v-63H825.1 M826.1,441.4h-65v65h65V441.4L826.1,441.4z"/>
	</g>
	<g class="st1">
		<rect x="825.5" y="441.9" class="st2" width="64" height="64"/>
		<path d="M889,442.4v63h-63v-63H889 M890,441.4h-65v65h65V441.4L890,441.4z"/>
	</g>
	<g class="st1">
		<rect x="-389.5" y="505.9" class="st2" width="64" height="64"/>
		<path d="M-326,506.4v63h-63v-63H-326 M-325,505.4h-65v65h65V505.4L-325,505.4z"/>
	</g>
	<g class="st1">
		<rect x="-325.6" y="505.9" class="st2" width="64" height="64"/>
		<path d="M-262.1,506.4v63h-63v-63H-262.1 M-261.1,505.4H-326v65h65v-65H-261.1z"/>
	</g>
	<g class="st1">
		<rect x="-261.6" y="505.9" class="st2" width="64" height="64"/>
		<path d="M-198.1,506.4v63h-63v-63H-198.1 M-197.1,505.4h-65v65h65V505.4L-197.1,505.4z"/>
	</g>
	<g class="st1">
		<rect x="-197.6" y="505.9" class="st2" width="64" height="64"/>
		<path d="M-134.2,506.4v63h-63v-63H-134.2 M-133.2,505.4h-65v65h65V505.4L-133.2,505.4z"/>
	</g>
	<g class="st1">
		<rect x="-133.7" y="505.9" class="st2" width="64" height="64"/>
		<path d="M-70.2,506.4v63h-63v-63H-70.2 M-69.2,505.4h-65v65h65V505.4L-69.2,505.4z"/>
	</g>
	<g class="st1">
		<rect x="-69.8" y="505.9" class="st2" width="64" height="64"/>
		<path d="M-6.3,506.4v63h-63v-63H-6.3 M-5.3,505.4h-65v65h65V505.4L-5.3,505.4z"/>
	</g>
	<g class="st1">
		<rect x="-5.8" y="505.9" class="st2" width="64" height="64"/>
		<path d="M57.7,506.4v63h-63v-63H57.7 M58.7,505.4h-65v65h65V505.4L58.7,505.4z"/>
	</g>
	<g class="st1">
		<rect x="58.1" y="505.9" class="st2" width="64" height="64"/>
		<path d="M121.6,506.4v63h-63v-63H121.6 M122.6,505.4h-65v65h65V505.4L122.6,505.4z"/>
	</g>
	<g class="st1">
		<rect x="122.1" y="505.9" class="st2" width="64" height="64"/>
		<path d="M185.6,506.4v63h-63v-63H185.6 M186.6,505.4h-65v65h65V505.4L186.6,505.4z"/>
	</g>
	<g class="st1">
		<rect x="186" y="505.9" class="st2" width="64" height="64"/>
		<path d="M249.5,506.4v63h-63v-63H249.5 M250.5,505.4h-65v65h65V505.4L250.5,505.4z"/>
	</g>
	<g class="st1">
		<rect x="250" y="505.9" class="st2" width="64" height="64"/>
		<path d="M313.5,506.4v63h-63v-63H313.5 M314.5,505.4h-65v65h65V505.4L314.5,505.4z"/>
	</g>
	<g class="st1">
		<rect x="313.9" y="505.9" class="st2" width="64" height="64"/>
		<path d="M377.4,506.4v63h-63v-63H377.4 M378.4,505.4h-65v65h65V505.4L378.4,505.4z"/>
	</g>
	<g class="st1">
		<rect x="377.9" y="505.9" class="st2" width="64" height="64"/>
		<path d="M441.4,506.4v63h-63v-63H441.4 M442.4,505.4h-65v65h65V505.4L442.4,505.4z"/>
	</g>
	<g class="st1">
		<rect x="441.8" y="505.9" class="st2" width="64" height="64"/>
		<path d="M505.3,506.4v63h-63v-63H505.3 M506.3,505.4h-65v65h65V505.4L506.3,505.4z"/>
	</g>
	<g class="st1">
		<rect x="505.8" y="505.9" class="st2" width="64" height="64"/>
		<path d="M569.2,506.4v63h-63v-63H569.2 M570.2,505.4h-65v65h65V505.4L570.2,505.4z"/>
	</g>
	<g class="st1">
		<rect x="569.7" y="505.9" class="st2" width="64" height="64"/>
		<path d="M633.2,506.4v63h-63v-63H633.2 M634.2,505.4h-65v65h65V505.4L634.2,505.4z"/>
	</g>
	<g class="st1">
		<rect x="633.7" y="505.9" class="st2" width="64" height="64"/>
		<path d="M697.2,506.4v63h-63v-63H697.2 M698.2,505.4h-65v65h65V505.4L698.2,505.4z"/>
	</g>
	<g class="st1">
		<rect x="697.6" y="505.9" class="st2" width="64" height="64"/>
		<path d="M761.1,506.4v63h-63v-63H761.1 M762.1,505.4h-65v65h65V505.4L762.1,505.4z"/>
	</g>
	<g class="st1">
		<rect x="761.6" y="505.9" class="st2" width="64" height="64"/>
		<path d="M825.1,506.4v63h-63v-63H825.1 M826.1,505.4h-65v65h65V505.4L826.1,505.4z"/>
	</g>
	<g class="st1">
		<rect x="825.5" y="505.9" class="st2" width="64" height="64"/>
		<path d="M889,506.4v63h-63v-63H889 M890,505.4h-65v65h65V505.4L890,505.4z"/>
	</g>
	<g class="st1">
		<rect x="-389.5" y="569.8" class="st2" width="64" height="64"/>
		<path d="M-326,570.3v63h-63v-63H-326 M-325,569.3h-65v65h65V569.3L-325,569.3z"/>
	</g>
	<g class="st1">
		<rect x="-325.6" y="569.8" class="st2" width="64" height="64"/>
		<path d="M-262.1,570.3v63h-63v-63H-262.1 M-261.1,569.3H-326v65h65v-65H-261.1z"/>
	</g>
	<g class="st1">
		<rect x="-261.6" y="569.8" class="st2" width="64" height="64"/>
		<path d="M-198.1,570.3v63h-63v-63H-198.1 M-197.1,569.3h-65v65h65V569.3L-197.1,569.3z"/>
	</g>
	<g class="st1">
		<rect x="-197.6" y="569.8" class="st2" width="64" height="64"/>
		<path d="M-134.2,570.3v63h-63v-63H-134.2 M-133.2,569.3h-65v65h65V569.3L-133.2,569.3z"/>
	</g>
	<g class="st1">
		<rect x="-133.7" y="569.8" class="st2" width="64" height="64"/>
		<path d="M-70.2,570.3v63h-63v-63H-70.2 M-69.2,569.3h-65v65h65V569.3L-69.2,569.3z"/>
	</g>
	<g class="st1">
		<rect x="-69.8" y="569.8" class="st2" width="64" height="64"/>
		<path d="M-6.3,570.3v63h-63v-63H-6.3 M-5.3,569.3h-65v65h65V569.3L-5.3,569.3z"/>
	</g>
	<g class="st1">
		<rect x="-5.8" y="569.8" class="st2" width="64" height="64"/>
		<path d="M57.7,570.3v63h-63v-63H57.7 M58.7,569.3h-65v65h65V569.3L58.7,569.3z"/>
	</g>
	<g class="st1">
		<rect x="58.1" y="569.8" class="st2" width="64" height="64"/>
		<path d="M121.6,570.3v63h-63v-63H121.6 M122.6,569.3h-65v65h65V569.3L122.6,569.3z"/>
	</g>
	<g class="st1">
		<rect x="122.1" y="569.8" class="st2" width="64" height="64"/>
		<path d="M185.6,570.3v63h-63v-63H185.6 M186.6,569.3h-65v65h65V569.3L186.6,569.3z"/>
	</g>
	<g class="st1">
		<rect x="186" y="569.8" class="st2" width="64" height="64"/>
		<path d="M249.5,570.3v63h-63v-63H249.5 M250.5,569.3h-65v65h65V569.3L250.5,569.3z"/>
	</g>
	<g class="st1">
		<rect x="250" y="569.8" class="st2" width="64" height="64"/>
		<path d="M313.5,570.3v63h-63v-63H313.5 M314.5,569.3h-65v65h65V569.3L314.5,569.3z"/>
	</g>
	<g class="st1">
		<rect x="313.9" y="569.8" class="st2" width="64" height="64"/>
		<path d="M377.4,570.3v63h-63v-63H377.4 M378.4,569.3h-65v65h65V569.3L378.4,569.3z"/>
	</g>
	<g class="st1">
		<rect x="377.9" y="569.8" class="st2" width="64" height="64"/>
		<path d="M441.4,570.3v63h-63v-63H441.4 M442.4,569.3h-65v65h65V569.3L442.4,569.3z"/>
	</g>
	<g class="st1">
		<rect x="441.8" y="569.8" class="st2" width="64" height="64"/>
		<path d="M505.3,570.3v63h-63v-63H505.3 M506.3,569.3h-65v65h65V569.3L506.3,569.3z"/>
	</g>
	<g class="st1">
		<rect x="505.8" y="569.8" class="st2" width="64" height="64"/>
		<path d="M569.2,570.3v63h-63v-63H569.2 M570.2,569.3h-65v65h65V569.3L570.2,569.3z"/>
	</g>
	<g class="st1">
		<rect x="569.7" y="569.8" class="st2" width="64" height="64"/>
		<path d="M633.2,570.3v63h-63v-63H633.2 M634.2,569.3h-65v65h65V569.3L634.2,569.3z"/>
	</g>
	<g class="st1">
		<rect x="633.7" y="569.8" class="st2" width="64" height="64"/>
		<path d="M697.2,570.3v63h-63v-63H697.2 M698.2,569.3h-65v65h65V569.3L698.2,569.3z"/>
	</g>
	<g class="st1">
		<rect x="697.6" y="569.8" class="st2" width="64" height="64"/>
		<path d="M761.1,570.3v63h-63v-63H761.1 M762.1,569.3h-65v65h65V569.3L762.1,569.3z"/>
	</g>
	<g class="st1">
		<rect x="761.6" y="569.8" class="st2" width="64" height="64"/>
		<path d="M825.1,570.3v63h-63v-63H825.1 M826.1,569.3h-65v65h65V569.3L826.1,569.3z"/>
	</g>
	<g class="st1">
		<rect x="825.5" y="569.8" class="st2" width="64" height="64"/>
		<path d="M889,570.3v63h-63v-63H889 M890,569.3h-65v65h65V569.3L890,569.3z"/>
	</g>
	<g class="st1">
		<rect x="-389.5" y="633.8" class="st2" width="64" height="64"/>
		<path d="M-326,634.2v63h-63v-63H-326 M-325,633.2h-65v65h65V633.2L-325,633.2z"/>
	</g>
	<g class="st1">
		<rect x="-325.6" y="633.8" class="st2" width="64" height="64"/>
		<path d="M-262.1,634.2v63h-63v-63H-262.1 M-261.1,633.2H-326v65h65v-65H-261.1z"/>
	</g>
	<g class="st1">
		<rect x="-261.6" y="633.8" class="st2" width="64" height="64"/>
		<path d="M-198.1,634.2v63h-63v-63H-198.1 M-197.1,633.2h-65v65h65V633.2L-197.1,633.2z"/>
	</g>
	<g class="st1">
		<rect x="-197.6" y="633.8" class="st2" width="64" height="64"/>
		<path d="M-134.2,634.2v63h-63v-63H-134.2 M-133.2,633.2h-65v65h65V633.2L-133.2,633.2z"/>
	</g>
	<g class="st1">
		<rect x="-133.7" y="633.8" class="st2" width="64" height="64"/>
		<path d="M-70.2,634.2v63h-63v-63H-70.2 M-69.2,633.2h-65v65h65V633.2L-69.2,633.2z"/>
	</g>
	<g class="st1">
		<rect x="-69.8" y="633.8" class="st2" width="64" height="64"/>
		<path d="M-6.3,634.2v63h-63v-63H-6.3 M-5.3,633.2h-65v65h65V633.2L-5.3,633.2z"/>
	</g>
	<g class="st1">
		<rect x="-5.8" y="633.8" class="st2" width="64" height="64"/>
		<path d="M57.7,634.2v63h-63v-63H57.7 M58.7,633.2h-65v65h65V633.2L58.7,633.2z"/>
	</g>
	<g class="st1">
		<rect x="58.1" y="633.8" class="st2" width="64" height="64"/>
		<path d="M121.6,634.2v63h-63v-63H121.6 M122.6,633.2h-65v65h65V633.2L122.6,633.2z"/>
	</g>
	<g class="st1">
		<rect x="122.1" y="633.8" class="st2" width="64" height="64"/>
		<path d="M185.6,634.2v63h-63v-63H185.6 M186.6,633.2h-65v65h65V633.2L186.6,633.2z"/>
	</g>
	<g class="st1">
		<rect x="186" y="633.8" class="st2" width="64" height="64"/>
		<path d="M249.5,634.2v63h-63v-63H249.5 M250.5,633.2h-65v65h65V633.2L250.5,633.2z"/>
	</g>
	<g class="st1">
		<rect x="250" y="633.8" class="st2" width="64" height="64"/>
		<path d="M313.5,634.2v63h-63v-63H313.5 M314.5,633.2h-65v65h65V633.2L314.5,633.2z"/>
	</g>
	<g class="st1">
		<rect x="313.9" y="633.8" class="st2" width="64" height="64"/>
		<path d="M377.4,634.2v63h-63v-63H377.4 M378.4,633.2h-65v65h65V633.2L378.4,633.2z"/>
	</g>
	<g class="st1">
		<rect x="377.9" y="633.8" class="st2" width="64" height="64"/>
		<path d="M441.4,634.2v63h-63v-63H441.4 M442.4,633.2h-65v65h65V633.2L442.4,633.2z"/>
	</g>
	<g class="st1">
		<rect x="441.8" y="633.8" class="st2" width="64" height="64"/>
		<path d="M505.3,634.2v63h-63v-63H505.3 M506.3,633.2h-65v65h65V633.2L506.3,633.2z"/>
	</g>
	<g class="st1">
		<rect x="505.8" y="633.8" class="st2" width="64" height="64"/>
		<path d="M569.2,634.2v63h-63v-63H569.2 M570.2,633.2h-65v65h65V633.2L570.2,633.2z"/>
	</g>
	<g class="st1">
		<rect x="569.7" y="633.8" class="st2" width="64" height="64"/>
		<path d="M633.2,634.2v63h-63v-63H633.2 M634.2,633.2h-65v65h65V633.2L634.2,633.2z"/>
	</g>
	<g class="st1">
		<rect x="633.7" y="633.8" class="st2" width="64" height="64"/>
		<path d="M697.2,634.2v63h-63v-63H697.2 M698.2,633.2h-65v65h65V633.2L698.2,633.2z"/>
	</g>
	<g class="st1">
		<rect x="697.6" y="633.8" class="st2" width="64" height="64"/>
		<path d="M761.1,634.2v63h-63v-63H761.1 M762.1,633.2h-65v65h65V633.2L762.1,633.2z"/>
	</g>
	<g class="st1">
		<rect x="761.6" y="633.8" class="st2" width="64" height="64"/>
		<path d="M825.1,634.2v63h-63v-63H825.1 M826.1,633.2h-65v65h65V633.2L826.1,633.2z"/>
	</g>
	<g class="st1">
		<rect x="825.5" y="633.8" class="st2" width="64" height="64"/>
		<path d="M889,634.2v63h-63v-63H889 M890,633.2h-65v65h65V633.2L890,633.2z"/>
	</g>
	<g class="st1">
		<rect x="-389.5" y="697.7" class="st2" width="64" height="64"/>
		<path d="M-326,698.2v63h-63v-63H-326 M-325,697.2h-65v65h65V697.2L-325,697.2z"/>
	</g>
	<g class="st1">
		<rect x="-325.6" y="697.7" class="st2" width="64" height="64"/>
		<path d="M-262.1,698.2v63h-63v-63H-262.1 M-261.1,697.2H-326v65h65v-65H-261.1z"/>
	</g>
	<g class="st1">
		<rect x="-261.6" y="697.7" class="st2" width="64" height="64"/>
		<path d="M-198.1,698.2v63h-63v-63H-198.1 M-197.1,697.2h-65v65h65V697.2L-197.1,697.2z"/>
	</g>
	<g class="st1">
		<rect x="-197.6" y="697.7" class="st2" width="64" height="64"/>
		<path d="M-134.2,698.2v63h-63v-63H-134.2 M-133.2,697.2h-65v65h65V697.2L-133.2,697.2z"/>
	</g>
	<g class="st1">
		<rect x="-133.7" y="697.7" class="st2" width="64" height="64"/>
		<path d="M-70.2,698.2v63h-63v-63H-70.2 M-69.2,697.2h-65v65h65V697.2L-69.2,697.2z"/>
	</g>
	<g class="st1">
		<rect x="-69.8" y="697.7" class="st2" width="64" height="64"/>
		<path d="M-6.3,698.2v63h-63v-63H-6.3 M-5.3,697.2h-65v65h65V697.2L-5.3,697.2z"/>
	</g>
	<g class="st1">
		<rect x="-5.8" y="697.7" class="st2" width="64" height="64"/>
		<path d="M57.7,698.2v63h-63v-63H57.7 M58.7,697.2h-65v65h65V697.2L58.7,697.2z"/>
	</g>
	<g class="st1">
		<rect x="58.1" y="697.7" class="st2" width="64" height="64"/>
		<path d="M121.6,698.2v63h-63v-63H121.6 M122.6,697.2h-65v65h65V697.2L122.6,697.2z"/>
	</g>
	<g class="st1">
		<rect x="122.1" y="697.7" class="st2" width="64" height="64"/>
		<path d="M185.6,698.2v63h-63v-63H185.6 M186.6,697.2h-65v65h65V697.2L186.6,697.2z"/>
	</g>
	<g class="st1">
		<rect x="186" y="697.7" class="st2" width="64" height="64"/>
		<path d="M249.5,698.2v63h-63v-63H249.5 M250.5,697.2h-65v65h65V697.2L250.5,697.2z"/>
	</g>
	<g class="st1">
		<rect x="250" y="697.7" class="st2" width="64" height="64"/>
		<path d="M313.5,698.2v63h-63v-63H313.5 M314.5,697.2h-65v65h65V697.2L314.5,697.2z"/>
	</g>
	<g class="st1">
		<rect x="313.9" y="697.7" class="st2" width="64" height="64"/>
		<path d="M377.4,698.2v63h-63v-63H377.4 M378.4,697.2h-65v65h65V697.2L378.4,697.2z"/>
	</g>
	<g class="st1">
		<rect x="377.9" y="697.7" class="st2" width="64" height="64"/>
		<path d="M441.4,698.2v63h-63v-63H441.4 M442.4,697.2h-65v65h65V697.2L442.4,697.2z"/>
	</g>
	<g class="st1">
		<rect x="441.8" y="697.7" class="st2" width="64" height="64"/>
		<path d="M505.3,698.2v63h-63v-63H505.3 M506.3,697.2h-65v65h65V697.2L506.3,697.2z"/>
	</g>
	<g class="st1">
		<rect x="505.8" y="697.7" class="st2" width="64" height="64"/>
		<path d="M569.2,698.2v63h-63v-63H569.2 M570.2,697.2h-65v65h65V697.2L570.2,697.2z"/>
	</g>
	<g class="st1">
		<rect x="569.7" y="697.7" class="st2" width="64" height="64"/>
		<path d="M633.2,698.2v63h-63v-63H633.2 M634.2,697.2h-65v65h65V697.2L634.2,697.2z"/>
	</g>
	<g class="st1">
		<rect x="633.7" y="697.7" class="st2" width="64" height="64"/>
		<path d="M697.2,698.2v63h-63v-63H697.2 M698.2,697.2h-65v65h65V697.2L698.2,697.2z"/>
	</g>
	<g class="st1">
		<rect x="697.6" y="697.7" class="st2" width="64" height="64"/>
		<path d="M761.1,698.2v63h-63v-63H761.1 M762.1,697.2h-65v65h65V697.2L762.1,697.2z"/>
	</g>
	<g class="st1">
		<rect x="761.6" y="697.7" class="st2" width="64" height="64"/>
		<path d="M825.1,698.2v63h-63v-63H825.1 M826.1,697.2h-65v65h65V697.2L826.1,697.2z"/>
	</g>
	<g class="st1">
		<rect x="825.5" y="697.7" class="st2" width="64" height="64"/>
		<path d="M889,698.2v63h-63v-63H889 M890,697.2h-65v65h65V697.2L890,697.2z"/>
	</g>
</g>
<polyline class="st3" points="209.6,480 20.2,480 20.2,291.1 "/>
<polyline class="st3" points="290.4,20.4 479.8,20.4 479.8,208.7 "/>
<line class="st3" x1="20.2" y1="480" x2="209.1" y2="291.1"/>
<line class="st3" x1="290.9" y1="209.3" x2="479.8" y2="20.4"/>
</svg>
