<?xml version="1.0" encoding="utf-8"?>
<!-- Generator: Adobe Illustrator 22.1.0, SVG Export Plug-In . SVG Version: 6.00 Build 0)  -->
<svg version="1.1" id="Capa_1" xmlns="http://www.w3.org/2000/svg" xmlns:xlink="http://www.w3.org/1999/xlink" x="0px" y="0px"
	 viewBox="0 0 551 841.9" style="enable-background:new 0 0 551 841.9;" xml:space="preserve">
<style type="text/css">
	.st0{fill:#FFFFFF;}
</style>
<g>
	<g>
		<g>
			<path class="st0" d="M358.2,389.4c-0.8,0-1.4-0.6-1.4-1.4v-36.3c0-0.2,0-0.4,0.1-0.6l36.5-73.5l0.6-22.2l-8.3-62.4l-8.7,74.6
				c0,0.2-0.1,0.3-0.1,0.5l-37.1,71.3l-0.7,27.9c0,0.8-0.6,1.3-1.4,1.4c-0.8,0-1.4-0.7-1.4-1.4l0.7-28.3c0-0.2,0.1-0.4,0.2-0.6
				l37.1-71.3l10-85.5c0.1-0.7,0.7-1.2,1.4-1.2c0,0,0,0,0,0c0.7,0,1.3,0.5,1.4,1.2l9.7,73.7l-0.6,22.7c0,0.2-0.1,0.4-0.1,0.6
				L359.6,352v36C359.6,388.8,359,389.4,358.2,389.4z"/>
		</g>
		<g>
			<path class="st0" d="M395,271.3c-0.3,0-0.6-0.1-0.9-0.3c-0.6-0.5-0.7-1.4-0.2-2l21.2-24.9c0.2-0.2,0.4-0.3,0.6-0.4l71.9-25.6
				l14.1-15.6l32.9-52.2l-52.7,47.8c-0.1,0.1-0.3,0.2-0.5,0.3l-70.9,23.5l-16.3,17.7c-0.5,0.6-1.4,0.6-2,0.1c-0.6-0.5-0.6-1.4-0.1-2
				l16.5-18c0.2-0.2,0.4-0.3,0.6-0.4l71-23.5l60.1-54.5c0.5-0.5,1.3-0.5,1.8,0c0.5,0.4,0.7,1.2,0.3,1.8l-38.5,61l-14.5,16.1
				c-0.2,0.2-0.4,0.3-0.6,0.4L417,246.2l-20.9,24.6C395.8,271.1,395.4,271.3,395,271.3z"/>
		</g>
		<g>
			<path class="st0" d="M426.6,216.5c-0.7,0-1.3-0.5-1.4-1.2l-9-51.3c0-0.2,0-0.4,0-0.6L438.5,85l-29-83.1c-0.2-0.7,0.1-1.4,0.7-1.7
				c0.6-0.3,1.4-0.1,1.8,0.5l46.1,67.1c0.1,0.2,0.2,0.4,0.2,0.6l3.8,22.1c0,0.2,0,0.4,0,0.6l-21.3,80.6l7,35.2
				c0.1,0.8-0.3,1.5-1.1,1.6c-0.7,0.2-1.5-0.3-1.6-1.1l-7.1-35.5c0-0.2,0-0.4,0-0.6l21.3-80.6L455.6,69l-40-58.2l25.7,73.7
				c0.1,0.3,0.1,0.6,0,0.8L419,163.9l8.9,51c0.1,0.8-0.4,1.5-1.1,1.6C426.7,216.5,426.6,216.5,426.6,216.5z"/>
		</g>
		<path class="st0" d="M441.6,105.9"/>
		<path class="st0" d="M450.4,131.1c-0.5,0-0.9-0.2-1.2-0.7c-0.4-0.7-0.2-1.5,0.5-1.9l68-41.5l11.2-18.3l16.5-41l-36.7,41
			c-0.1,0.1-0.2,0.2-0.3,0.3L460,96.9c-0.7,0.4-1.5,0.2-1.9-0.5c-0.4-0.7-0.2-1.5,0.5-1.9l48.1-27.8l41.9-46.8
			c0.5-0.5,1.2-0.6,1.8-0.3c0.6,0.4,0.8,1.1,0.6,1.7l-19.6,48.6l-11.5,18.8c-0.1,0.2-0.3,0.3-0.5,0.5l-68.3,41.6
			C450.9,131,450.7,131.1,450.4,131.1z"/>
		<path class="st0" d="M450.4,129.7"/>
	</g>
	<g>
		<path class="st0" d="M275.4,841.9c-0.1,0-0.3,0-0.4-0.1c-0.6-0.2-1-0.7-1-1.3V600.7c0-0.8,0.6-1.4,1.4-1.4h20.3L308,582l10.7-10.8
			v-21.7c0-0.3,0.1-0.5,0.2-0.7l22.8-37.4c0.3-0.4,0.8-0.6,1.2-0.7c0.5,0,0.9,0.3,1.2,0.7l55.5,94.7c0.3,0.4,0.3,1,0,1.4l-8.7,15.1
			l10,17.6c0.3,0.4,0.2,1,0,1.4L276.6,841.2C276.4,841.7,275.9,841.9,275.4,841.9z M276.8,602.1v233.5l121.2-194.8l-10-17.6
			c-0.2-0.4-0.2-1,0-1.4l8.7-15l-53.9-92l-21.4,35v21.9c0,0.4-0.1,0.7-0.4,1l-11,11.1l-12.5,17.7c-0.3,0.4-0.7,0.6-1.1,0.6H276.8z"
			/>
		<path class="st0" d="M389.3,624c-0.5,0-0.9-0.2-1.2-0.7l-55.9-94.9c-0.4-0.7-0.2-1.5,0.5-1.9c0.7-0.4,1.5-0.2,1.9,0.5l55.9,94.9
			c0.4,0.7,0.2,1.5-0.5,1.9C389.8,623.9,389.5,624,389.3,624z"/>
	</g>
	<path class="st0" d="M365.8,445.2c-0.8,0-1.4-0.6-1.4-1.4v-19.3c0-0.8,0.6-1.4,1.4-1.4s1.4,0.6,1.4,1.4v19.3
		C367.2,444.6,366.6,445.2,365.8,445.2z"/>
	<path class="st0" d="M365.8,397.1c-0.4,0-0.7-0.1-1-0.4l-34.6-34.4h-62.6c-0.8,0-1.4-0.6-1.4-1.4s0.6-1.4,1.4-1.4h63.2
		c0.4,0,0.7,0.1,1,0.4l35,34.8c0.5,0.5,0.5,1.4,0,2C366.5,397,366.2,397.1,365.8,397.1z"/>
	<path class="st0" d="M301.1,469.4c-0.1,0-0.2,0-0.3,0c-0.7-0.1-1.1-0.7-1.1-1.4c0-0.1,0-0.2,0-0.3l19.6-107.1
		c0.1-0.8,0.9-1.3,1.6-1.1c0.7,0.1,1.1,0.7,1.1,1.4c0,0.1,0,0.2,0,0.3l-19.6,107.1C302.3,469,301.8,469.4,301.1,469.4z"/>
	<path class="st0" d="M320.2,550.8c-0.6,0-1.2-0.4-1.4-1.1l-19.1-81.4c-0.2-0.7,0.3-1.5,1-1.7c0.8-0.2,1.5,0.3,1.7,1l19.1,81.4
		c0.2,0.7-0.3,1.5-1,1.7C320.4,550.8,320.3,550.8,320.2,550.8z"/>
	<path class="st0" d="M343.5,469.3H323c-0.5,0-1-0.3-1.3-0.8c-0.2-0.5-0.1-1.1,0.2-1.5l13.6-15.9c0.3-0.3,0.7-0.5,1.1-0.5h17.5
		c0.5,0,1,0.3,1.2,0.7c0.2,0.5,0.2,1-0.1,1.4l-10.5,15.9C344.4,469.1,344,469.3,343.5,469.3z M326,466.5h16.8l8.7-13.1h-14.2
		L326,466.5z"/>
	<path class="st0" d="M309.2,584.2h-33.7c-0.8,0-1.4-0.6-1.4-1.4v-12.6c0-0.5,0.3-1,0.7-1.2l24.4-13.8l-5.8-13.9h-36.7
		c-0.8,0-1.4-0.6-1.4-1.4s0.6-1.4,1.4-1.4h37.6c0.6,0,1.1,0.3,1.3,0.9l6.6,15.9c0.3,0.7,0,1.4-0.6,1.7l-24.8,14v10.4h32.3
		c0.8,0,1.4,0.6,1.4,1.4S310,584.2,309.2,584.2z"/>
	<path class="st0" d="M343,513.5c-0.2,0-0.5-0.1-0.7-0.2c-0.7-0.4-0.9-1.3-0.5-1.9l22.6-37v-33.6c0-0.7,0.5-1.2,1.1-1.4l38.6-8.7
		l28.5-27l21.6-38.3l-87.6,59.4c-0.4,0.3-1,0.3-1.4,0.1c-0.5-0.2-0.7-0.7-0.7-1.2v-27.9c0-0.5,0.2-0.9,0.6-1.1l24.9-17.4
		c0.1-0.1,0.3-0.2,0.4-0.2l67.5-17.4c0.2,0,0.3-0.1,0.5,0c0,0,0,0,0,0c0,0,0,0,0,0c0.1,0,0.1,0,0.2,0c0.3,0.1,0.6,0.3,0.8,0.5
		c0,0,0,0.1,0.1,0.1c0.2,0.3,0.2,0.6,0.2,0.9c0,0.1,0,0.2-0.1,0.3l0,0l0,0c0,0.1-0.1,0.2-0.1,0.3l-24.6,43.6
		c-0.1,0.1-0.2,0.2-0.3,0.3l-29,27.4c-0.2,0.2-0.4,0.3-0.7,0.3l-37.8,8.5v32.9c0,0.3-0.1,0.5-0.2,0.7l-22.8,37.4
		C343.9,513.3,343.5,513.5,343,513.5z M367.2,396.5V421l83.6-56.7l-59.5,15.3L367.2,396.5z"/>
	<g>
		<g>
			<path class="st0" d="M192.9,389.4c-0.8,0-1.4-0.6-1.4-1.4v-36L155,278.5c-0.1-0.2-0.1-0.4-0.1-0.6l-0.6-22.5l9.8-74
				c0.1-0.7,0.6-1.1,1.4-1.2c0.7,0,1.3,0.5,1.4,1.2l10,85.5l37.1,71.3c0.1,0.2,0.2,0.4,0.2,0.6l0.7,28.8c0,0.8-0.6,1.4-1.4,1.4
				c-0.8,0-1.4-0.6-1.4-1.4l-0.7-28.5l-37.1-71.3c-0.1-0.1-0.1-0.3-0.1-0.5l-8.7-74.6l-8.3,62.6l0.6,22l36.5,73.5
				c0.1,0.2,0.1,0.4,0.1,0.6V388C194.3,388.8,193.6,389.4,192.9,389.4z"/>
		</g>
		<g>
			<path class="st0" d="M156,271.3c-0.4,0-0.8-0.2-1.1-0.5L134,246.2l-71.9-25.6c-0.2-0.1-0.4-0.2-0.6-0.4l-14.4-15.9L8.6,143.2
				c-0.4-0.6-0.3-1.4,0.3-1.8c0.5-0.4,1.3-0.4,1.8,0l60.1,54.5l71,23.5c0.2,0.1,0.4,0.2,0.6,0.4l16.5,18c0.5,0.6,0.5,1.5-0.1,2
				c-0.6,0.5-1.4,0.5-2-0.1l-16.3-17.7l-70.9-23.5c-0.2-0.1-0.4-0.2-0.5-0.3l-52.7-47.8l33,52.4l14,15.4l71.9,25.6
				c0.2,0.1,0.4,0.2,0.6,0.4l21.2,24.9c0.5,0.6,0.4,1.5-0.2,2C156.7,271.2,156.4,271.3,156,271.3z"/>
		</g>
		<g>
			<path class="st0" d="M124.5,216.5c-0.1,0-0.2,0-0.2,0c-0.8-0.1-1.3-0.9-1.1-1.6l8.9-51l-22.3-78.5c-0.1-0.3-0.1-0.6,0-0.8
				l25.7-73.7L95.5,69l-3.7,21.5l21.3,80.6c0.1,0.2,0.1,0.4,0,0.6l-7.1,35.5c-0.2,0.8-0.9,1.2-1.6,1.1c-0.8-0.2-1.2-0.9-1.1-1.6
				l7-35.2L89,90.9c-0.1-0.2-0.1-0.4,0-0.6l3.8-22.1c0-0.2,0.1-0.4,0.2-0.6l46.1-67.1c0.4-0.6,1.2-0.8,1.8-0.5
				c0.6,0.3,0.9,1,0.7,1.7l-29,83.1l22.3,78.4c0.1,0.2,0.1,0.4,0,0.6l-9,51.3C125.7,216,125.1,216.5,124.5,216.5z"/>
		</g>
		<path class="st0" d="M109.4,105.9"/>
		<path class="st0" d="M100.6,131.1c-0.2,0-0.5-0.1-0.7-0.2L31.6,89.2c-0.2-0.1-0.3-0.3-0.5-0.5L19.8,70.1L0.1,21.3
			c-0.3-0.6,0-1.3,0.6-1.7c0.6-0.4,1.3-0.3,1.8,0.3l41.9,46.8l48.1,27.8c0.7,0.4,0.9,1.2,0.5,1.9c-0.4,0.7-1.2,0.9-1.9,0.5L42.7,69
			c-0.1-0.1-0.2-0.2-0.3-0.3l-36.7-41l16.6,41.2L33.4,87l68,41.5c0.7,0.4,0.9,1.3,0.5,1.9C101.6,130.8,101.1,131.1,100.6,131.1z"/>
		<path class="st0" d="M100.6,129.7"/>
	</g>
	<path class="st0" d="M185.2,445.2c-0.8,0-1.4-0.6-1.4-1.4v-19.3c0-0.8,0.6-1.4,1.4-1.4c0.8,0,1.4,0.6,1.4,1.4v19.3
		C186.6,444.6,186,445.2,185.2,445.2z"/>
	<path class="st0" d="M185.2,397.1c-0.4,0-0.7-0.1-1-0.4c-0.5-0.5-0.5-1.4,0-2l35-34.8c0.3-0.3,0.6-0.4,1-0.4h63.2
		c0.8,0,1.4,0.6,1.4,1.4s-0.6,1.4-1.4,1.4h-62.6l-34.5,34.4C185.9,397,185.6,397.1,185.2,397.1z"/>
	<path class="st0" d="M249.9,469.4c-0.7,0-1.2-0.5-1.4-1.1L229,361.2c0-0.1,0-0.2,0-0.3c0-0.7,0.5-1.2,1.1-1.4
		c0.8-0.1,1.5,0.4,1.6,1.1l19.6,107.1c0,0.1,0,0.2,0,0.3c0,0.7-0.5,1.2-1.1,1.4C250.1,469.4,250,469.4,249.9,469.4z"/>
	<path class="st0" d="M230.9,550.8c-0.1,0-0.2,0-0.3,0c-0.7-0.2-1.2-0.9-1-1.7l19.1-81.4c0.2-0.8,0.9-1.2,1.7-1
		c0.7,0.2,1.2,0.9,1,1.7l-19.1,81.4C232.1,550.4,231.5,550.8,230.9,550.8z"/>
	<path class="st0" d="M228.1,469.3h-20.5c-0.5,0-0.9-0.2-1.2-0.6l-10.5-15.9c-0.3-0.4-0.3-1-0.1-1.4c0.2-0.5,0.7-0.7,1.2-0.7h17.5
		c0.4,0,0.8,0.2,1.1,0.5l13.6,15.9c0.4,0.4,0.4,1,0.2,1.5C229.1,469,228.6,469.3,228.1,469.3z M208.3,466.5H225l-11.2-13.1h-14.2
		L208.3,466.5z"/>
	<path class="st0" d="M275.5,584.2h-33.7c-0.8,0-1.4-0.6-1.4-1.4s0.6-1.4,1.4-1.4h32.3V571l-24.8-14c-0.6-0.3-0.9-1.1-0.6-1.7
		l6.6-15.9c0.2-0.5,0.7-0.9,1.3-0.9h37.6c0.8,0,1.4,0.6,1.4,1.4s-0.6,1.4-1.4,1.4h-36.7l-5.8,13.9l24.4,13.8
		c0.4,0.2,0.7,0.7,0.7,1.2v12.6C276.9,583.6,276.3,584.2,275.5,584.2z"/>
	<path class="st0" d="M208.1,513.5c-0.5,0-0.9-0.2-1.2-0.7L184,475.5c-0.1-0.2-0.2-0.5-0.2-0.7v-32.9l-37.8-8.5
		c-0.2-0.1-0.5-0.2-0.7-0.3l-29-27.4c-0.1-0.1-0.2-0.2-0.3-0.3l-24.6-43.6c-0.1-0.1-0.1-0.2-0.1-0.3c0-0.1,0-0.2-0.1-0.3
		c0-0.3,0-0.6,0.2-0.9l0,0l0,0c0,0,0-0.1,0-0.1l0,0c0,0,0,0,0,0c0.2-0.3,0.5-0.5,0.8-0.6c0.1,0,0.1,0,0.2,0c0.2,0,0.3,0,0.5,0
		l67.5,17.4c0.2,0,0.3,0.1,0.4,0.2l24.9,17.4c0.4,0.3,0.6,0.7,0.6,1.1v27.9c0,0.5-0.3,1-0.7,1.2c-0.5,0.2-1,0.2-1.4-0.1l-87.6-59.4
		l21.6,38.3l28.5,27l38.6,8.7c0.6,0.1,1.1,0.7,1.1,1.4v33.6l22.6,37c0.4,0.7,0.2,1.5-0.5,1.9C208.5,513.4,208.3,513.5,208.1,513.5z
		 M100.2,364.3l83.6,56.7v-24.5l-24.1-16.9L100.2,364.3z"/>
	<g>
		<path class="st0" d="M275.4,841.9c-0.5,0-0.9-0.2-1.2-0.7L150.2,641.6c-0.3-0.4-0.3-1,0-1.4l10-17.6l-8.7-15.1
			c-0.3-0.4-0.2-1,0-1.4l55.4-94.7c0.2-0.4,0.7-0.7,1.2-0.7c0.5-0.1,0.9,0.2,1.2,0.7l22.8,37.4c0.1,0.2,0.2,0.5,0.2,0.7v21.7
			l10.5,10.7l12.4,17.5h20.2c0.8,0,1.4,0.6,1.4,1.4v239.8c0,0.6-0.4,1.2-1,1.3C275.7,841.9,275.6,841.9,275.4,841.9z M153,640.9
			L274,835.6V602.1h-19.6c-0.5,0-0.9-0.2-1.1-0.6l-12.7-17.9l-10.8-10.9c-0.3-0.3-0.4-0.6-0.4-1v-21.9l-21.4-35l-53.8,92l8.7,15
			c0.2,0.4,0.2,1,0,1.4L153,640.9z"/>
		<path class="st0" d="M161.8,624c-0.2,0-0.5-0.1-0.7-0.2c-0.7-0.4-0.9-1.2-0.5-1.9l55.8-94.9c0.4-0.7,1.2-0.9,1.9-0.5
			c0.7,0.4,0.9,1.2,0.5,1.9L163,623.3C162.7,623.8,162.2,624,161.8,624z"/>
	</g>
</g>
</svg>
