<?xml version="1.0" encoding="utf-8"?>
<!-- Generator: Adobe Illustrator 23.0.3, SVG Export Plug-In . SVG Version: 6.00 Build 0)  -->
<svg version="1.1" id="Capa_1" xmlns="http://www.w3.org/2000/svg" xmlns:xlink="http://www.w3.org/1999/xlink" x="0px" y="0px"
	 viewBox="0 0 500 500" style="enable-background:new 0 0 500 500;" xml:space="preserve">
<style type="text/css">
	.st0{display:none;opacity:0.5;}
	.st1{display:inline;opacity:0.5;}
	.st2{fill:#FFFFFF;}
	.st3{fill:none;stroke:#FFFFFF;stroke-width:40;stroke-linecap:round;stroke-linejoin:round;stroke-miterlimit:10;}
</style>
<g class="st0">
	<g class="st1">
		<rect x="-389.5" y="-261.5" class="st2" width="64" height="63.9"/>
		<path d="M-326-261v63h-63v-63H-326 M-325-262h-65v64.9h65V-262L-325-262z"/>
	</g>
	<g class="st1">
		<rect x="-325.6" y="-261.5" class="st2" width="64" height="63.9"/>
		<path d="M-262.1-261v63h-63v-63H-262.1 M-261.1-262H-326v64.9h65V-262H-261.1z"/>
	</g>
	<g class="st1">
		<rect x="-261.6" y="-261.5" class="st2" width="64" height="63.9"/>
		<path d="M-198.1-261v63h-63v-63H-198.1 M-197.1-262h-65v64.9h65V-262L-197.1-262z"/>
	</g>
	<g class="st1">
		<rect x="-197.6" y="-261.5" class="st2" width="64" height="63.9"/>
		<path d="M-134.2-261v63h-63v-63H-134.2 M-133.2-262h-65v64.9h65V-262L-133.2-262z"/>
	</g>
	<g class="st1">
		<rect x="-133.7" y="-261.5" class="st2" width="64" height="63.9"/>
		<path d="M-70.2-261v63h-63v-63H-70.2 M-69.2-262h-65v64.9h65V-262L-69.2-262z"/>
	</g>
	<g class="st1">
		<rect x="-69.8" y="-261.5" class="st2" width="64" height="63.9"/>
		<path d="M-6.3-261v63h-63v-63H-6.3 M-5.3-262h-65v64.9h65V-262L-5.3-262z"/>
	</g>
	<g class="st1">
		<rect x="-5.8" y="-261.5" class="st2" width="64" height="63.9"/>
		<path d="M57.7-261v63h-63v-63H57.7 M58.7-262h-65v64.9h65V-262L58.7-262z"/>
	</g>
	<g class="st1">
		<rect x="58.1" y="-261.5" class="st2" width="64" height="63.9"/>
		<path d="M121.6-261v63h-63v-63H121.6 M122.6-262h-65v64.9h65V-262L122.6-262z"/>
	</g>
	<g class="st1">
		<rect x="122.1" y="-261.5" class="st2" width="64" height="63.9"/>
		<path d="M185.6-261v63h-63v-63H185.6 M186.6-262h-65v64.9h65V-262L186.6-262z"/>
	</g>
	<g class="st1">
		<rect x="186" y="-261.5" class="st2" width="64" height="63.9"/>
		<path d="M249.5-261v63h-63v-63H249.5 M250.5-262h-65v64.9h65V-262L250.5-262z"/>
	</g>
	<g class="st1">
		<rect x="250" y="-261.5" class="st2" width="64" height="63.9"/>
		<path d="M313.5-261v63h-63v-63H313.5 M314.5-262h-65v64.9h65V-262L314.5-262z"/>
	</g>
	<g class="st1">
		<rect x="313.9" y="-261.5" class="st2" width="64" height="63.9"/>
		<path d="M377.4-261v63h-63v-63H377.4 M378.4-262h-65v64.9h65V-262L378.4-262z"/>
	</g>
	<g class="st1">
		<rect x="377.9" y="-261.5" class="st2" width="64" height="63.9"/>
		<path d="M441.4-261v63h-63v-63H441.4 M442.4-262h-65v64.9h65V-262L442.4-262z"/>
	</g>
	<g class="st1">
		<rect x="441.8" y="-261.5" class="st2" width="64" height="63.9"/>
		<path d="M505.3-261v63h-63v-63H505.3 M506.3-262h-65v64.9h65V-262L506.3-262z"/>
	</g>
	<g class="st1">
		<rect x="505.8" y="-261.5" class="st2" width="64" height="63.9"/>
		<path d="M569.2-261v63h-63v-63H569.2 M570.2-262h-65v64.9h65V-262L570.2-262z"/>
	</g>
	<g class="st1">
		<rect x="569.7" y="-261.5" class="st2" width="64" height="63.9"/>
		<path d="M633.2-261v63h-63v-63H633.2 M634.2-262h-65v64.9h65V-262L634.2-262z"/>
	</g>
	<g class="st1">
		<rect x="633.7" y="-261.5" class="st2" width="64" height="63.9"/>
		<path d="M697.2-261v63h-63v-63H697.2 M698.2-262h-65v64.9h65V-262L698.2-262z"/>
	</g>
	<g class="st1">
		<rect x="697.6" y="-261.5" class="st2" width="64" height="63.9"/>
		<path d="M761.1-261v63h-63v-63H761.1 M762.1-262h-65v64.9h65V-262L762.1-262z"/>
	</g>
	<g class="st1">
		<rect x="761.6" y="-261.5" class="st2" width="64" height="63.9"/>
		<path d="M825.1-261v63h-63v-63H825.1 M826.1-262h-65v64.9h65V-262L826.1-262z"/>
	</g>
	<g class="st1">
		<rect x="825.5" y="-261.5" class="st2" width="64" height="63.9"/>
		<path d="M889-261v63h-63v-63H889 M890-262h-65v64.9h65V-262L890-262z"/>
	</g>
	<g class="st1">
		<rect x="-389.5" y="-197.6" class="st2" width="64" height="63.9"/>
		<path d="M-326-197.1v62.9h-63v-62.9H-326 M-325-198.1h-65v65h65V-198.1L-325-198.1z"/>
	</g>
	<g class="st1">
		<rect x="-325.6" y="-197.6" class="st2" width="64" height="63.9"/>
		<path d="M-262.1-197.1v62.9h-63v-62.9H-262.1 M-261.1-198.1H-326v65h65v-65C-261-198.1-261.1-198.1-261.1-198.1z"/>
	</g>
	<g class="st1">
		<rect x="-261.6" y="-197.6" class="st2" width="64" height="63.9"/>
		<path d="M-198.1-197.1v62.9h-63v-62.9H-198.1 M-197.1-198.1h-65v65h65V-198.1L-197.1-198.1z"/>
	</g>
	<g class="st1">
		<rect x="-197.6" y="-197.6" class="st2" width="64" height="63.9"/>
		<path d="M-134.2-197.1v62.9h-63v-62.9H-134.2 M-133.2-198.1h-65v65h65V-198.1L-133.2-198.1z"/>
	</g>
	<g class="st1">
		<rect x="-133.7" y="-197.6" class="st2" width="64" height="63.9"/>
		<path d="M-70.2-197.1v62.9h-63v-62.9H-70.2 M-69.2-198.1h-65v65h65V-198.1L-69.2-198.1z"/>
	</g>
	<g class="st1">
		<rect x="-69.8" y="-197.6" class="st2" width="64" height="63.9"/>
		<path d="M-6.3-197.1v62.9h-63v-62.9H-6.3 M-5.3-198.1h-65v65h65V-198.1L-5.3-198.1z"/>
	</g>
	<g class="st1">
		<rect x="-5.8" y="-197.6" class="st2" width="64" height="63.9"/>
		<path d="M57.7-197.1v62.9h-63v-62.9H57.7 M58.7-198.1h-65v65h65V-198.1L58.7-198.1z"/>
	</g>
	<g class="st1">
		<rect x="58.1" y="-197.6" class="st2" width="64" height="63.9"/>
		<path d="M121.6-197.1v62.9h-63v-62.9H121.6 M122.6-198.1h-65v65h65V-198.1L122.6-198.1z"/>
	</g>
	<g class="st1">
		<rect x="122.1" y="-197.6" class="st2" width="64" height="63.9"/>
		<path d="M185.6-197.1v62.9h-63v-62.9H185.6 M186.6-198.1h-65v65h65V-198.1L186.6-198.1z"/>
	</g>
	<g class="st1">
		<rect x="186" y="-197.6" class="st2" width="64" height="63.9"/>
		<path d="M249.5-197.1v62.9h-63v-62.9H249.5 M250.5-198.1h-65v65h65V-198.1L250.5-198.1z"/>
	</g>
	<g class="st1">
		<rect x="250" y="-197.6" class="st2" width="64" height="63.9"/>
		<path d="M313.5-197.1v62.9h-63v-62.9H313.5 M314.5-198.1h-65v65h65V-198.1L314.5-198.1z"/>
	</g>
	<g class="st1">
		<rect x="313.9" y="-197.6" class="st2" width="64" height="63.9"/>
		<path d="M377.4-197.1v62.9h-63v-62.9H377.4 M378.4-198.1h-65v65h65V-198.1L378.4-198.1z"/>
	</g>
	<g class="st1">
		<rect x="377.9" y="-197.6" class="st2" width="64" height="63.9"/>
		<path d="M441.4-197.1v62.9h-63v-62.9H441.4 M442.4-198.1h-65v65h65V-198.1L442.4-198.1z"/>
	</g>
	<g class="st1">
		<rect x="441.8" y="-197.6" class="st2" width="64" height="63.9"/>
		<path d="M505.3-197.1v62.9h-63v-62.9H505.3 M506.3-198.1h-65v65h65V-198.1L506.3-198.1z"/>
	</g>
	<g class="st1">
		<rect x="505.8" y="-197.6" class="st2" width="64" height="63.9"/>
		<path d="M569.2-197.1v62.9h-63v-62.9H569.2 M570.2-198.1h-65v65h65V-198.1L570.2-198.1z"/>
	</g>
	<g class="st1">
		<rect x="569.7" y="-197.6" class="st2" width="64" height="63.9"/>
		<path d="M633.2-197.1v62.9h-63v-62.9H633.2 M634.2-198.1h-65v65h65V-198.1L634.2-198.1z"/>
	</g>
	<g class="st1">
		<rect x="633.7" y="-197.6" class="st2" width="64" height="63.9"/>
		<path d="M697.2-197.1v62.9h-63v-62.9H697.2 M698.2-198.1h-65v65h65V-198.1L698.2-198.1z"/>
	</g>
	<g class="st1">
		<rect x="697.6" y="-197.6" class="st2" width="64" height="63.9"/>
		<path d="M761.1-197.1v62.9h-63v-62.9H761.1 M762.1-198.1h-65v65h65V-198.1L762.1-198.1z"/>
	</g>
	<g class="st1">
		<rect x="761.6" y="-197.6" class="st2" width="64" height="63.9"/>
		<path d="M825.1-197.1v62.9h-63v-62.9H825.1 M826.1-198.1h-65v65h65V-198.1L826.1-198.1z"/>
	</g>
	<g class="st1">
		<rect x="825.5" y="-197.6" class="st2" width="64" height="63.9"/>
		<path d="M889-197.1v62.9h-63v-62.9H889 M890-198.1h-65v65h65V-198.1L890-198.1z"/>
	</g>
	<g class="st1">
		<rect x="-389.5" y="-133.6" class="st2" width="64" height="63.9"/>
		<path d="M-326-133.1v62.9h-63v-62.9H-326 M-325-134.1h-65v65h65V-134.1L-325-134.1z"/>
	</g>
	<g class="st1">
		<rect x="-325.6" y="-133.6" class="st2" width="64" height="63.9"/>
		<path d="M-262.1-133.1v62.9h-63v-62.9H-262.1 M-261.1-134.1H-326v65h65v-65C-261-134.1-261.1-134.1-261.1-134.1z"/>
	</g>
	<g class="st1">
		<rect x="-261.6" y="-133.6" class="st2" width="64" height="63.9"/>
		<path d="M-198.1-133.1v62.9h-63v-62.9H-198.1 M-197.1-134.1h-65v65h65V-134.1L-197.1-134.1z"/>
	</g>
	<g class="st1">
		<rect x="-197.6" y="-133.6" class="st2" width="64" height="63.9"/>
		<path d="M-134.2-133.1v62.9h-63v-62.9H-134.2 M-133.2-134.1h-65v65h65V-134.1L-133.2-134.1z"/>
	</g>
	<g class="st1">
		<rect x="-133.7" y="-133.6" class="st2" width="64" height="63.9"/>
		<path d="M-70.2-133.1v62.9h-63v-62.9H-70.2 M-69.2-134.1h-65v65h65V-134.1L-69.2-134.1z"/>
	</g>
	<g class="st1">
		<rect x="-69.8" y="-133.6" class="st2" width="64" height="63.9"/>
		<path d="M-6.3-133.1v62.9h-63v-62.9H-6.3 M-5.3-134.1h-65v65h65V-134.1L-5.3-134.1z"/>
	</g>
	<g class="st1">
		<rect x="-5.8" y="-133.6" class="st2" width="64" height="63.9"/>
		<path d="M57.7-133.1v62.9h-63v-62.9H57.7 M58.7-134.1h-65v65h65V-134.1L58.7-134.1z"/>
	</g>
	<g class="st1">
		<rect x="58.1" y="-133.6" class="st2" width="64" height="63.9"/>
		<path d="M121.6-133.1v62.9h-63v-62.9H121.6 M122.6-134.1h-65v65h65V-134.1L122.6-134.1z"/>
	</g>
	<g class="st1">
		<rect x="122.1" y="-133.6" class="st2" width="64" height="63.9"/>
		<path d="M185.6-133.1v62.9h-63v-62.9H185.6 M186.6-134.1h-65v65h65V-134.1L186.6-134.1z"/>
	</g>
	<g class="st1">
		<rect x="186" y="-133.6" class="st2" width="64" height="63.9"/>
		<path d="M249.5-133.1v62.9h-63v-62.9H249.5 M250.5-134.1h-65v65h65V-134.1L250.5-134.1z"/>
	</g>
	<g class="st1">
		<rect x="250" y="-133.6" class="st2" width="64" height="63.9"/>
		<path d="M313.5-133.1v62.9h-63v-62.9H313.5 M314.5-134.1h-65v65h65V-134.1L314.5-134.1z"/>
	</g>
	<g class="st1">
		<rect x="313.9" y="-133.6" class="st2" width="64" height="63.9"/>
		<path d="M377.4-133.1v62.9h-63v-62.9H377.4 M378.4-134.1h-65v65h65V-134.1L378.4-134.1z"/>
	</g>
	<g class="st1">
		<rect x="377.9" y="-133.6" class="st2" width="64" height="63.9"/>
		<path d="M441.4-133.1v62.9h-63v-62.9H441.4 M442.4-134.1h-65v65h65V-134.1L442.4-134.1z"/>
	</g>
	<g class="st1">
		<rect x="441.8" y="-133.6" class="st2" width="64" height="63.9"/>
		<path d="M505.3-133.1v62.9h-63v-62.9H505.3 M506.3-134.1h-65v65h65V-134.1L506.3-134.1z"/>
	</g>
	<g class="st1">
		<rect x="505.8" y="-133.6" class="st2" width="64" height="63.9"/>
		<path d="M569.2-133.1v62.9h-63v-62.9H569.2 M570.2-134.1h-65v65h65V-134.1L570.2-134.1z"/>
	</g>
	<g class="st1">
		<rect x="569.7" y="-133.6" class="st2" width="64" height="63.9"/>
		<path d="M633.2-133.1v62.9h-63v-62.9H633.2 M634.2-134.1h-65v65h65V-134.1L634.2-134.1z"/>
	</g>
	<g class="st1">
		<rect x="633.7" y="-133.6" class="st2" width="64" height="63.9"/>
		<path d="M697.2-133.1v62.9h-63v-62.9H697.2 M698.2-134.1h-65v65h65V-134.1L698.2-134.1z"/>
	</g>
	<g class="st1">
		<rect x="697.6" y="-133.6" class="st2" width="64" height="63.9"/>
		<path d="M761.1-133.1v62.9h-63v-62.9H761.1 M762.1-134.1h-65v65h65V-134.1L762.1-134.1z"/>
	</g>
	<g class="st1">
		<rect x="761.6" y="-133.6" class="st2" width="64" height="63.9"/>
		<path d="M825.1-133.1v62.9h-63v-62.9H825.1 M826.1-134.1h-65v65h65V-134.1L826.1-134.1z"/>
	</g>
	<g class="st1">
		<rect x="825.5" y="-133.6" class="st2" width="64" height="63.9"/>
		<path d="M889-133.1v62.9h-63v-62.9H889 M890-134.1h-65v65h65V-134.1L890-134.1z"/>
	</g>
	<g class="st1">
		<rect x="-389.5" y="-69.7" class="st2" width="64" height="64"/>
		<path d="M-326-69.2v62.9h-63v-62.9L-326-69.2 M-325-70.2h-65v65h65V-70.2L-325-70.2z"/>
	</g>
	<g class="st1">
		<rect x="-325.6" y="-69.7" class="st2" width="64" height="64"/>
		<path d="M-262.1-69.2v62.9h-63v-62.9L-262.1-69.2 M-261.1-70.2H-326v65h65v-65L-261.1-70.2L-261.1-70.2z"/>
	</g>
	<g class="st1">
		<rect x="-261.6" y="-69.7" class="st2" width="64" height="64"/>
		<path d="M-198.1-69.2v62.9h-63v-62.9L-198.1-69.2 M-197.1-70.2h-65v65h65V-70.2L-197.1-70.2z"/>
	</g>
	<g class="st1">
		<rect x="-197.6" y="-69.7" class="st2" width="64" height="64"/>
		<path d="M-134.2-69.2v62.9h-63v-62.9L-134.2-69.2 M-133.2-70.2h-65v65h65V-70.2L-133.2-70.2z"/>
	</g>
	<g class="st1">
		<rect x="-133.7" y="-69.7" class="st2" width="64" height="64"/>
		<path d="M-70.2-69.2v62.9h-63v-62.9L-70.2-69.2 M-69.2-70.2h-65v65h65V-70.2L-69.2-70.2z"/>
	</g>
	<g class="st1">
		<rect x="-69.8" y="-69.7" class="st2" width="64" height="64"/>
		<path d="M-6.3-69.2v62.9h-63v-62.9L-6.3-69.2 M-5.3-70.2h-65v65h65V-70.2L-5.3-70.2z"/>
	</g>
	<g class="st1">
		<rect x="-5.8" y="-69.7" class="st2" width="64" height="64"/>
		<path d="M57.7-69.2v62.9h-63v-62.9L57.7-69.2 M58.7-70.2h-65v65h65V-70.2L58.7-70.2z"/>
	</g>
	<g class="st1">
		<rect x="58.1" y="-69.7" class="st2" width="64" height="64"/>
		<path d="M121.6-69.2v62.9h-63v-62.9L121.6-69.2 M122.6-70.2h-65v65h65V-70.2L122.6-70.2z"/>
	</g>
	<g class="st1">
		<rect x="122.1" y="-69.7" class="st2" width="64" height="64"/>
		<path d="M185.6-69.2v62.9h-63v-62.9L185.6-69.2 M186.6-70.2h-65v65h65V-70.2L186.6-70.2z"/>
	</g>
	<g class="st1">
		<rect x="186" y="-69.7" class="st2" width="64" height="64"/>
		<path d="M249.5-69.2v62.9h-63v-62.9L249.5-69.2 M250.5-70.2h-65v65h65V-70.2L250.5-70.2z"/>
	</g>
	<g class="st1">
		<rect x="250" y="-69.7" class="st2" width="64" height="64"/>
		<path d="M313.5-69.2v62.9h-63v-62.9L313.5-69.2 M314.5-70.2h-65v65h65V-70.2L314.5-70.2z"/>
	</g>
	<g class="st1">
		<rect x="313.9" y="-69.7" class="st2" width="64" height="64"/>
		<path d="M377.4-69.2v62.9h-63v-62.9L377.4-69.2 M378.4-70.2h-65v65h65V-70.2L378.4-70.2z"/>
	</g>
	<g class="st1">
		<rect x="377.9" y="-69.7" class="st2" width="64" height="64"/>
		<path d="M441.4-69.2v62.9h-63v-62.9L441.4-69.2 M442.4-70.2h-65v65h65V-70.2L442.4-70.2z"/>
	</g>
	<g class="st1">
		<rect x="441.8" y="-69.7" class="st2" width="64" height="64"/>
		<path d="M505.3-69.2v62.9h-63v-62.9L505.3-69.2 M506.3-70.2h-65v65h65V-70.2L506.3-70.2z"/>
	</g>
	<g class="st1">
		<rect x="505.8" y="-69.7" class="st2" width="64" height="64"/>
		<path d="M569.2-69.2v62.9h-63v-62.9L569.2-69.2 M570.2-70.2h-65v65h65V-70.2L570.2-70.2z"/>
	</g>
	<g class="st1">
		<rect x="569.7" y="-69.7" class="st2" width="64" height="64"/>
		<path d="M633.2-69.2v62.9h-63v-62.9L633.2-69.2 M634.2-70.2h-65v65h65V-70.2L634.2-70.2z"/>
	</g>
	<g class="st1">
		<rect x="633.7" y="-69.7" class="st2" width="64" height="64"/>
		<path d="M697.2-69.2v62.9h-63v-62.9L697.2-69.2 M698.2-70.2h-65v65h65V-70.2L698.2-70.2z"/>
	</g>
	<g class="st1">
		<rect x="697.6" y="-69.7" class="st2" width="64" height="64"/>
		<path d="M761.1-69.2v62.9h-63v-62.9L761.1-69.2 M762.1-70.2h-65v65h65V-70.2L762.1-70.2z"/>
	</g>
	<g class="st1">
		<rect x="761.6" y="-69.7" class="st2" width="64" height="64"/>
		<path d="M825.1-69.2v62.9h-63v-62.9L825.1-69.2 M826.1-70.2h-65v65h65V-70.2L826.1-70.2z"/>
	</g>
	<g class="st1">
		<rect x="825.5" y="-69.7" class="st2" width="64" height="64"/>
		<path d="M889-69.2v62.9h-63v-62.9L889-69.2 M890-70.2h-65v65h65V-70.2L890-70.2z"/>
	</g>
	<g class="st1">
		<rect x="-389.5" y="-5.7" class="st2" width="64" height="64"/>
		<path d="M-326-5.2v63h-63v-63H-326 M-325-6.2h-65v65h65V-6.2L-325-6.2z"/>
	</g>
	<g class="st1">
		<rect x="-325.6" y="-5.8" class="st2" width="64" height="64"/>
		<path d="M-262.1-5.2v63h-63v-63H-262.1 M-261.1-6.2H-326v65h65v-65L-261.1-6.2L-261.1-6.2z"/>
	</g>
	<g class="st1">
		<rect x="-261.6" y="-5.8" class="st2" width="64" height="64"/>
		<path d="M-198.1-5.2v63h-63v-63H-198.1 M-197.1-6.2h-65v65h65V-6.2L-197.1-6.2z"/>
	</g>
	<g class="st1">
		<rect x="-197.6" y="-5.8" class="st2" width="64" height="64"/>
		<path d="M-134.2-5.2v63h-63v-63H-134.2 M-133.2-6.2h-65v65h65V-6.2L-133.2-6.2z"/>
	</g>
	<g class="st1">
		<rect x="-133.7" y="-5.8" class="st2" width="64" height="64"/>
		<path d="M-70.2-5.2v63h-63v-63H-70.2 M-69.2-6.2h-65v65h65V-6.2L-69.2-6.2z"/>
	</g>
	<g class="st1">
		<rect x="-69.8" y="-5.8" class="st2" width="64" height="64"/>
		<path d="M-6.3-5.2v63h-63v-63H-6.3 M-5.3-6.2h-65v65h65V-6.2L-5.3-6.2z"/>
	</g>
	<g class="st1">
		<rect x="-5.8" y="-5.8" class="st2" width="64" height="64"/>
		<path d="M57.7-5.2v63h-63v-63H57.7 M58.7-6.2h-65v65h65V-6.2L58.7-6.2z"/>
	</g>
	<g class="st1">
		<rect x="58.1" y="-5.8" class="st2" width="64" height="64"/>
		<path d="M121.6-5.2v63h-63v-63H121.6 M122.6-6.2h-65v65h65V-6.2L122.6-6.2z"/>
	</g>
	<g class="st1">
		<rect x="122.1" y="-5.8" class="st2" width="64" height="64"/>
		<path d="M185.6-5.2v63h-63v-63H185.6 M186.6-6.2h-65v65h65V-6.2L186.6-6.2z"/>
	</g>
	<g class="st1">
		<rect x="186" y="-5.8" class="st2" width="64" height="64"/>
		<path d="M249.5-5.2v63h-63v-63H249.5 M250.5-6.2h-65v65h65V-6.2L250.5-6.2z"/>
	</g>
	<g class="st1">
		<rect x="250" y="-5.8" class="st2" width="64" height="64"/>
		<path d="M313.5-5.2v63h-63v-63H313.5 M314.5-6.2h-65v65h65V-6.2L314.5-6.2z"/>
	</g>
	<g class="st1">
		<rect x="313.9" y="-5.8" class="st2" width="64" height="64"/>
		<path d="M377.4-5.2v63h-63v-63H377.4 M378.4-6.2h-65v65h65V-6.2L378.4-6.2z"/>
	</g>
	<g class="st1">
		<rect x="377.9" y="-5.8" class="st2" width="64" height="64"/>
		<path d="M441.4-5.2v63h-63v-63H441.4 M442.4-6.2h-65v65h65V-6.2L442.4-6.2z"/>
	</g>
	<g class="st1">
		<rect x="441.8" y="-5.8" class="st2" width="64" height="64"/>
		<path d="M505.3-5.2v63h-63v-63H505.3 M506.3-6.2h-65v65h65V-6.2L506.3-6.2z"/>
	</g>
	<g class="st1">
		<rect x="505.8" y="-5.8" class="st2" width="64" height="64"/>
		<path d="M569.2-5.2v63h-63v-63H569.2 M570.2-6.2h-65v65h65V-6.2L570.2-6.2z"/>
	</g>
	<g class="st1">
		<rect x="569.7" y="-5.8" class="st2" width="64" height="64"/>
		<path d="M633.2-5.2v63h-63v-63H633.2 M634.2-6.2h-65v65h65V-6.2L634.2-6.2z"/>
	</g>
	<g class="st1">
		<rect x="633.7" y="-5.8" class="st2" width="64" height="64"/>
		<path d="M697.2-5.2v63h-63v-63H697.2 M698.2-6.2h-65v65h65V-6.2L698.2-6.2z"/>
	</g>
	<g class="st1">
		<rect x="697.6" y="-5.8" class="st2" width="64" height="64"/>
		<path d="M761.1-5.2v63h-63v-63H761.1 M762.1-6.2h-65v65h65V-6.2L762.1-6.2z"/>
	</g>
	<g class="st1">
		<rect x="761.6" y="-5.8" class="st2" width="64" height="64"/>
		<path d="M825.1-5.2v63h-63v-63H825.1 M826.1-6.2h-65v65h65V-6.2L826.1-6.2z"/>
	</g>
	<g class="st1">
		<rect x="825.5" y="-5.8" class="st2" width="64" height="64"/>
		<path d="M889-5.2v63h-63v-63H889 M890-6.2h-65v65h65V-6.2L890-6.2z"/>
	</g>
	<g class="st1">
		<rect x="-389.5" y="58.2" class="st2" width="64" height="64"/>
		<path d="M-326,58.7v63h-63v-63H-326 M-325,57.7h-65v65h65V57.7L-325,57.7z"/>
	</g>
	<g class="st1">
		<rect x="-325.6" y="58.2" class="st2" width="64" height="64"/>
		<path d="M-262.1,58.7v63h-63v-63H-262.1 M-261.1,57.7H-326v65h65v-65H-261.1z"/>
	</g>
	<g class="st1">
		<rect x="-261.6" y="58.2" class="st2" width="64" height="64"/>
		<path d="M-198.1,58.7v63h-63v-63H-198.1 M-197.1,57.7h-65v65h65V57.7L-197.1,57.7z"/>
	</g>
	<g class="st1">
		<rect x="-197.6" y="58.2" class="st2" width="64" height="64"/>
		<path d="M-134.2,58.7v63h-63v-63H-134.2 M-133.2,57.7h-65v65h65V57.7L-133.2,57.7z"/>
	</g>
	<g class="st1">
		<rect x="-133.7" y="58.2" class="st2" width="64" height="64"/>
		<path d="M-70.2,58.7v63h-63v-63H-70.2 M-69.2,57.7h-65v65h65V57.7L-69.2,57.7z"/>
	</g>
	<g class="st1">
		<rect x="-69.8" y="58.2" class="st2" width="64" height="64"/>
		<path d="M-6.3,58.7v63h-63v-63H-6.3 M-5.3,57.7h-65v65h65V57.7L-5.3,57.7z"/>
	</g>
	<g class="st1">
		<rect x="-5.8" y="58.2" class="st2" width="64" height="64"/>
		<path d="M57.7,58.7v63h-63v-63H57.7 M58.7,57.7h-65v65h65V57.7L58.7,57.7z"/>
	</g>
	<g class="st1">
		<rect x="58.1" y="58.2" class="st2" width="64" height="64"/>
		<path d="M121.6,58.7v63h-63v-63H121.6 M122.6,57.7h-65v65h65V57.7L122.6,57.7z"/>
	</g>
	<g class="st1">
		<rect x="122.1" y="58.2" class="st2" width="64" height="64"/>
		<path d="M185.6,58.7v63h-63v-63H185.6 M186.6,57.7h-65v65h65V57.7L186.6,57.7z"/>
	</g>
	<g class="st1">
		<rect x="186" y="58.2" class="st2" width="64" height="64"/>
		<path d="M249.5,58.7v63h-63v-63H249.5 M250.5,57.7h-65v65h65V57.7L250.5,57.7z"/>
	</g>
	<g class="st1">
		<rect x="250" y="58.2" class="st2" width="64" height="64"/>
		<path d="M313.5,58.7v63h-63v-63H313.5 M314.5,57.7h-65v65h65V57.7L314.5,57.7z"/>
	</g>
	<g class="st1">
		<rect x="313.9" y="58.2" class="st2" width="64" height="64"/>
		<path d="M377.4,58.7v63h-63v-63H377.4 M378.4,57.7h-65v65h65V57.7L378.4,57.7z"/>
	</g>
	<g class="st1">
		<rect x="377.9" y="58.2" class="st2" width="64" height="64"/>
		<path d="M441.4,58.7v63h-63v-63H441.4 M442.4,57.7h-65v65h65V57.7L442.4,57.7z"/>
	</g>
	<g class="st1">
		<rect x="441.8" y="58.2" class="st2" width="64" height="64"/>
		<path d="M505.3,58.7v63h-63v-63H505.3 M506.3,57.7h-65v65h65V57.7L506.3,57.7z"/>
	</g>
	<g class="st1">
		<rect x="505.8" y="58.2" class="st2" width="64" height="64"/>
		<path d="M569.2,58.7v63h-63v-63H569.2 M570.2,57.7h-65v65h65V57.7L570.2,57.7z"/>
	</g>
	<g class="st1">
		<rect x="569.7" y="58.2" class="st2" width="64" height="64"/>
		<path d="M633.2,58.7v63h-63v-63H633.2 M634.2,57.7h-65v65h65V57.7L634.2,57.7z"/>
	</g>
	<g class="st1">
		<rect x="633.7" y="58.2" class="st2" width="64" height="64"/>
		<path d="M697.2,58.7v63h-63v-63H697.2 M698.2,57.7h-65v65h65V57.7L698.2,57.7z"/>
	</g>
	<g class="st1">
		<rect x="697.6" y="58.2" class="st2" width="64" height="64"/>
		<path d="M761.1,58.7v63h-63v-63H761.1 M762.1,57.7h-65v65h65V57.7L762.1,57.7z"/>
	</g>
	<g class="st1">
		<rect x="761.6" y="58.2" class="st2" width="64" height="64"/>
		<path d="M825.1,58.7v63h-63v-63H825.1 M826.1,57.7h-65v65h65V57.7L826.1,57.7z"/>
	</g>
	<g class="st1">
		<rect x="825.5" y="58.2" class="st2" width="64" height="64"/>
		<path d="M889,58.7v63h-63v-63H889 M890,57.7h-65v65h65V57.7L890,57.7z"/>
	</g>
	<g class="st1">
		<rect x="-389.5" y="122.1" class="st2" width="64" height="64"/>
		<path d="M-326,122.6v63h-63v-63H-326 M-325,121.6h-65v65h65V121.6L-325,121.6z"/>
	</g>
	<g class="st1">
		<rect x="-325.6" y="122.1" class="st2" width="64" height="64"/>
		<path d="M-262.1,122.6v63h-63v-63H-262.1 M-261.1,121.6H-326v65h65v-65H-261.1z"/>
	</g>
	<g class="st1">
		<rect x="-261.6" y="122.1" class="st2" width="64" height="64"/>
		<path d="M-198.1,122.6v63h-63v-63H-198.1 M-197.1,121.6h-65v65h65V121.6L-197.1,121.6z"/>
	</g>
	<g class="st1">
		<rect x="-197.6" y="122.1" class="st2" width="64" height="64"/>
		<path d="M-134.2,122.6v63h-63v-63H-134.2 M-133.2,121.6h-65v65h65V121.6L-133.2,121.6z"/>
	</g>
	<g class="st1">
		<rect x="-133.7" y="122.1" class="st2" width="64" height="64"/>
		<path d="M-70.2,122.6v63h-63v-63H-70.2 M-69.2,121.6h-65v65h65V121.6L-69.2,121.6z"/>
	</g>
	<g class="st1">
		<rect x="-69.8" y="122.1" class="st2" width="64" height="64"/>
		<path d="M-6.3,122.6v63h-63v-63H-6.3 M-5.3,121.6h-65v65h65V121.6L-5.3,121.6z"/>
	</g>
	<g class="st1">
		<rect x="-5.8" y="122.1" class="st2" width="64" height="64"/>
		<path d="M57.7,122.6v63h-63v-63H57.7 M58.7,121.6h-65v65h65V121.6L58.7,121.6z"/>
	</g>
	<g class="st1">
		<rect x="58.1" y="122.1" class="st2" width="64" height="64"/>
		<path d="M121.6,122.6v63h-63v-63H121.6 M122.6,121.6h-65v65h65V121.6L122.6,121.6z"/>
	</g>
	<g class="st1">
		<rect x="122.1" y="122.1" class="st2" width="64" height="64"/>
		<path d="M185.6,122.6v63h-63v-63H185.6 M186.6,121.6h-65v65h65V121.6L186.6,121.6z"/>
	</g>
	<g class="st1">
		<rect x="186" y="122.1" class="st2" width="64" height="64"/>
		<path d="M249.5,122.6v63h-63v-63H249.5 M250.5,121.6h-65v65h65V121.6L250.5,121.6z"/>
	</g>
	<g class="st1">
		<rect x="250" y="122.1" class="st2" width="64" height="64"/>
		<path d="M313.5,122.6v63h-63v-63H313.5 M314.5,121.6h-65v65h65V121.6L314.5,121.6z"/>
	</g>
	<g class="st1">
		<rect x="313.9" y="122.1" class="st2" width="64" height="64"/>
		<path d="M377.4,122.6v63h-63v-63H377.4 M378.4,121.6h-65v65h65V121.6L378.4,121.6z"/>
	</g>
	<g class="st1">
		<rect x="377.9" y="122.1" class="st2" width="64" height="64"/>
		<path d="M441.4,122.6v63h-63v-63H441.4 M442.4,121.6h-65v65h65V121.6L442.4,121.6z"/>
	</g>
	<g class="st1">
		<rect x="441.8" y="122.1" class="st2" width="64" height="64"/>
		<path d="M505.3,122.6v63h-63v-63H505.3 M506.3,121.6h-65v65h65V121.6L506.3,121.6z"/>
	</g>
	<g class="st1">
		<rect x="505.8" y="122.1" class="st2" width="64" height="64"/>
		<path d="M569.2,122.6v63h-63v-63H569.2 M570.2,121.6h-65v65h65V121.6L570.2,121.6z"/>
	</g>
	<g class="st1">
		<rect x="569.7" y="122.1" class="st2" width="64" height="64"/>
		<path d="M633.2,122.6v63h-63v-63H633.2 M634.2,121.6h-65v65h65V121.6L634.2,121.6z"/>
	</g>
	<g class="st1">
		<rect x="633.7" y="122.1" class="st2" width="64" height="64"/>
		<path d="M697.2,122.6v63h-63v-63H697.2 M698.2,121.6h-65v65h65V121.6L698.2,121.6z"/>
	</g>
	<g class="st1">
		<rect x="697.6" y="122.1" class="st2" width="64" height="64"/>
		<path d="M761.1,122.6v63h-63v-63H761.1 M762.1,121.6h-65v65h65V121.6L762.1,121.6z"/>
	</g>
	<g class="st1">
		<rect x="761.6" y="122.1" class="st2" width="64" height="64"/>
		<path d="M825.1,122.6v63h-63v-63H825.1 M826.1,121.6h-65v65h65V121.6L826.1,121.6z"/>
	</g>
	<g class="st1">
		<rect x="825.5" y="122.1" class="st2" width="64" height="64"/>
		<path d="M889,122.6v63h-63v-63H889 M890,121.6h-65v65h65V121.6L890,121.6z"/>
	</g>
	<g class="st1">
		<rect x="-389.5" y="186.1" class="st2" width="64" height="64"/>
		<path d="M-326,186.6v63h-63v-63H-326 M-325,185.6h-65v65h65V185.6L-325,185.6z"/>
	</g>
	<g class="st1">
		<rect x="-325.6" y="186.1" class="st2" width="64" height="64"/>
		<path d="M-262.1,186.6v63h-63v-63H-262.1 M-261.1,185.6H-326v65h65v-65L-261.1,185.6L-261.1,185.6z"/>
	</g>
	<g class="st1">
		<rect x="-261.6" y="186.1" class="st2" width="64" height="64"/>
		<path d="M-198.1,186.6v63h-63v-63H-198.1 M-197.1,185.6h-65v65h65V185.6L-197.1,185.6z"/>
	</g>
	<g class="st1">
		<rect x="-197.6" y="186.1" class="st2" width="64" height="64"/>
		<path d="M-134.2,186.6v63h-63v-63H-134.2 M-133.2,185.6h-65v65h65V185.6L-133.2,185.6z"/>
	</g>
	<g class="st1">
		<rect x="-133.7" y="186.1" class="st2" width="64" height="64"/>
		<path d="M-70.2,186.6v63h-63v-63H-70.2 M-69.2,185.6h-65v65h65V185.6L-69.2,185.6z"/>
	</g>
	<g class="st1">
		<rect x="-69.8" y="186.1" class="st2" width="64" height="64"/>
		<path d="M-6.3,186.6v63h-63v-63H-6.3 M-5.3,185.6h-65v65h65V185.6L-5.3,185.6z"/>
	</g>
	<g class="st1">
		<rect x="-5.8" y="186.1" class="st2" width="64" height="64"/>
		<path d="M57.7,186.6v63h-63v-63H57.7 M58.7,185.6h-65v65h65V185.6L58.7,185.6z"/>
	</g>
	<g class="st1">
		<rect x="58.1" y="186.1" class="st2" width="64" height="64"/>
		<path d="M121.6,186.6v63h-63v-63H121.6 M122.6,185.6h-65v65h65V185.6L122.6,185.6z"/>
	</g>
	<g class="st1">
		<rect x="122.1" y="186.1" class="st2" width="64" height="64"/>
		<path d="M185.6,186.6v63h-63v-63H185.6 M186.6,185.6h-65v65h65V185.6L186.6,185.6z"/>
	</g>
	<g class="st1">
		<rect x="186" y="186.1" class="st2" width="64" height="64"/>
		<path d="M249.5,186.6v63h-63v-63H249.5 M250.5,185.6h-65v65h65V185.6L250.5,185.6z"/>
	</g>
	<g class="st1">
		<rect x="250" y="186.1" class="st2" width="64" height="64"/>
		<path d="M313.5,186.6v63h-63v-63H313.5 M314.5,185.6h-65v65h65V185.6L314.5,185.6z"/>
	</g>
	<g class="st1">
		<rect x="313.9" y="186.1" class="st2" width="64" height="64"/>
		<path d="M377.4,186.6v63h-63v-63H377.4 M378.4,185.6h-65v65h65V185.6L378.4,185.6z"/>
	</g>
	<g class="st1">
		<rect x="377.9" y="186.1" class="st2" width="64" height="64"/>
		<path d="M441.4,186.6v63h-63v-63H441.4 M442.4,185.6h-65v65h65V185.6L442.4,185.6z"/>
	</g>
	<g class="st1">
		<rect x="441.8" y="186.1" class="st2" width="64" height="64"/>
		<path d="M505.3,186.6v63h-63v-63H505.3 M506.3,185.6h-65v65h65V185.6L506.3,185.6z"/>
	</g>
	<g class="st1">
		<rect x="505.8" y="186.1" class="st2" width="64" height="64"/>
		<path d="M569.2,186.6v63h-63v-63H569.2 M570.2,185.6h-65v65h65V185.6L570.2,185.6z"/>
	</g>
	<g class="st1">
		<rect x="569.7" y="186.1" class="st2" width="64" height="64"/>
		<path d="M633.2,186.6v63h-63v-63H633.2 M634.2,185.6h-65v65h65V185.6L634.2,185.6z"/>
	</g>
	<g class="st1">
		<rect x="633.7" y="186.1" class="st2" width="64" height="64"/>
		<path d="M697.2,186.6v63h-63v-63H697.2 M698.2,185.6h-65v65h65V185.6L698.2,185.6z"/>
	</g>
	<g class="st1">
		<rect x="697.6" y="186.1" class="st2" width="64" height="64"/>
		<path d="M761.1,186.6v63h-63v-63H761.1 M762.1,185.6h-65v65h65V185.6L762.1,185.6z"/>
	</g>
	<g class="st1">
		<rect x="761.6" y="186.1" class="st2" width="64" height="64"/>
		<path d="M825.1,186.6v63h-63v-63H825.1 M826.1,185.6h-65v65h65V185.6L826.1,185.6z"/>
	</g>
	<g class="st1">
		<rect x="825.5" y="186.1" class="st2" width="64" height="64"/>
		<path d="M889,186.6v63h-63v-63H889 M890,185.6h-65v65h65V185.6L890,185.6z"/>
	</g>
	<g class="st1">
		<rect x="-389.5" y="250" class="st2" width="64" height="64"/>
		<path d="M-326,250.5v63h-63v-63H-326 M-325,249.5h-65v65h65V249.5L-325,249.5z"/>
	</g>
	<g class="st1">
		<rect x="-325.6" y="250" class="st2" width="64" height="64"/>
		<path d="M-262.1,250.5v63h-63v-63H-262.1 M-261.1,249.5H-326v65h65v-65H-261.1z"/>
	</g>
	<g class="st1">
		<rect x="-261.6" y="250" class="st2" width="64" height="64"/>
		<path d="M-198.1,250.5v63h-63v-63H-198.1 M-197.1,249.5h-65v65h65V249.5L-197.1,249.5z"/>
	</g>
	<g class="st1">
		<rect x="-197.6" y="250" class="st2" width="64" height="64"/>
		<path d="M-134.2,250.5v63h-63v-63H-134.2 M-133.2,249.5h-65v65h65V249.5L-133.2,249.5z"/>
	</g>
	<g class="st1">
		<rect x="-133.7" y="250" class="st2" width="64" height="64"/>
		<path d="M-70.2,250.5v63h-63v-63H-70.2 M-69.2,249.5h-65v65h65V249.5L-69.2,249.5z"/>
	</g>
	<g class="st1">
		<rect x="-69.8" y="250" class="st2" width="64" height="64"/>
		<path d="M-6.3,250.5v63h-63v-63H-6.3 M-5.3,249.5h-65v65h65V249.5L-5.3,249.5z"/>
	</g>
	<g class="st1">
		<rect x="-5.8" y="250" class="st2" width="64" height="64"/>
		<path d="M57.7,250.5v63h-63v-63H57.7 M58.7,249.5h-65v65h65V249.5L58.7,249.5z"/>
	</g>
	<g class="st1">
		<rect x="58.1" y="250" class="st2" width="64" height="64"/>
		<path d="M121.6,250.5v63h-63v-63H121.6 M122.6,249.5h-65v65h65V249.5L122.6,249.5z"/>
	</g>
	<g class="st1">
		<rect x="122.1" y="250" class="st2" width="64" height="64"/>
		<path d="M185.6,250.5v63h-63v-63H185.6 M186.6,249.5h-65v65h65V249.5L186.6,249.5z"/>
	</g>
	<g class="st1">
		<rect x="186" y="250" class="st2" width="64" height="64"/>
		<path d="M249.5,250.5v63h-63v-63H249.5 M250.5,249.5h-65v65h65V249.5L250.5,249.5z"/>
	</g>
	<g class="st1">
		<rect x="250" y="250" class="st2" width="64" height="64"/>
		<path d="M313.5,250.5v63h-63v-63H313.5 M314.5,249.5h-65v65h65V249.5L314.5,249.5z"/>
	</g>
	<g class="st1">
		<rect x="313.9" y="250" class="st2" width="64" height="64"/>
		<path d="M377.4,250.5v63h-63v-63H377.4 M378.4,249.5h-65v65h65V249.5L378.4,249.5z"/>
	</g>
	<g class="st1">
		<rect x="377.9" y="250" class="st2" width="64" height="64"/>
		<path d="M441.4,250.5v63h-63v-63H441.4 M442.4,249.5h-65v65h65V249.5L442.4,249.5z"/>
	</g>
	<g class="st1">
		<rect x="441.8" y="250" class="st2" width="64" height="64"/>
		<path d="M505.3,250.5v63h-63v-63H505.3 M506.3,249.5h-65v65h65V249.5L506.3,249.5z"/>
	</g>
	<g class="st1">
		<rect x="505.8" y="250" class="st2" width="64" height="64"/>
		<path d="M569.2,250.5v63h-63v-63H569.2 M570.2,249.5h-65v65h65V249.5L570.2,249.5z"/>
	</g>
	<g class="st1">
		<rect x="569.7" y="250" class="st2" width="64" height="64"/>
		<path d="M633.2,250.5v63h-63v-63H633.2 M634.2,249.5h-65v65h65V249.5L634.2,249.5z"/>
	</g>
	<g class="st1">
		<rect x="633.7" y="250" class="st2" width="64" height="64"/>
		<path d="M697.2,250.5v63h-63v-63H697.2 M698.2,249.5h-65v65h65V249.5L698.2,249.5z"/>
	</g>
	<g class="st1">
		<rect x="697.6" y="250" class="st2" width="64" height="64"/>
		<path d="M761.1,250.5v63h-63v-63H761.1 M762.1,249.5h-65v65h65V249.5L762.1,249.5z"/>
	</g>
	<g class="st1">
		<rect x="761.6" y="250" class="st2" width="64" height="64"/>
		<path d="M825.1,250.5v63h-63v-63H825.1 M826.1,249.5h-65v65h65V249.5L826.1,249.5z"/>
	</g>
	<g class="st1">
		<rect x="825.5" y="250" class="st2" width="64" height="64"/>
		<path d="M889,250.5v63h-63v-63H889 M890,249.5h-65v65h65V249.5L890,249.5z"/>
	</g>
	<g class="st1">
		<rect x="-389.5" y="313.9" class="st2" width="64" height="64"/>
		<path d="M-326,314.4v63h-63v-63H-326 M-325,313.4h-65v65h65V313.4L-325,313.4z"/>
	</g>
	<g class="st1">
		<rect x="-325.6" y="313.9" class="st2" width="64" height="64"/>
		<path d="M-262.1,314.4v63h-63v-63H-262.1 M-261.1,313.4H-326v65h65v-65H-261.1z"/>
	</g>
	<g class="st1">
		<rect x="-261.6" y="313.9" class="st2" width="64" height="64"/>
		<path d="M-198.1,314.4v63h-63v-63H-198.1 M-197.1,313.4h-65v65h65V313.4L-197.1,313.4z"/>
	</g>
	<g class="st1">
		<rect x="-197.6" y="313.9" class="st2" width="64" height="64"/>
		<path d="M-134.2,314.4v63h-63v-63H-134.2 M-133.2,313.4h-65v65h65V313.4L-133.2,313.4z"/>
	</g>
	<g class="st1">
		<rect x="-133.7" y="313.9" class="st2" width="64" height="64"/>
		<path d="M-70.2,314.4v63h-63v-63H-70.2 M-69.2,313.4h-65v65h65V313.4L-69.2,313.4z"/>
	</g>
	<g class="st1">
		<rect x="-69.8" y="313.9" class="st2" width="64" height="64"/>
		<path d="M-6.3,314.4v63h-63v-63H-6.3 M-5.3,313.4h-65v65h65V313.4L-5.3,313.4z"/>
	</g>
	<g class="st1">
		<rect x="-5.8" y="313.9" class="st2" width="64" height="64"/>
		<path d="M57.7,314.4v63h-63v-63H57.7 M58.7,313.4h-65v65h65V313.4L58.7,313.4z"/>
	</g>
	<g class="st1">
		<rect x="58.1" y="313.9" class="st2" width="64" height="64"/>
		<path d="M121.6,314.4v63h-63v-63H121.6 M122.6,313.4h-65v65h65V313.4L122.6,313.4z"/>
	</g>
	<g class="st1">
		<rect x="122.1" y="313.9" class="st2" width="64" height="64"/>
		<path d="M185.6,314.4v63h-63v-63H185.6 M186.6,313.4h-65v65h65V313.4L186.6,313.4z"/>
	</g>
	<g class="st1">
		<rect x="186" y="313.9" class="st2" width="64" height="64"/>
		<path d="M249.5,314.4v63h-63v-63H249.5 M250.5,313.4h-65v65h65V313.4L250.5,313.4z"/>
	</g>
	<g class="st1">
		<rect x="250" y="313.9" class="st2" width="64" height="64"/>
		<path d="M313.5,314.4v63h-63v-63H313.5 M314.5,313.4h-65v65h65V313.4L314.5,313.4z"/>
	</g>
	<g class="st1">
		<rect x="313.9" y="313.9" class="st2" width="64" height="64"/>
		<path d="M377.4,314.4v63h-63v-63H377.4 M378.4,313.4h-65v65h65V313.4L378.4,313.4z"/>
	</g>
	<g class="st1">
		<rect x="377.9" y="313.9" class="st2" width="64" height="64"/>
		<path d="M441.4,314.4v63h-63v-63H441.4 M442.4,313.4h-65v65h65V313.4L442.4,313.4z"/>
	</g>
	<g class="st1">
		<rect x="441.8" y="313.9" class="st2" width="64" height="64"/>
		<path d="M505.3,314.4v63h-63v-63H505.3 M506.3,313.4h-65v65h65V313.4L506.3,313.4z"/>
	</g>
	<g class="st1">
		<rect x="505.8" y="313.9" class="st2" width="64" height="64"/>
		<path d="M569.2,314.4v63h-63v-63H569.2 M570.2,313.4h-65v65h65V313.4L570.2,313.4z"/>
	</g>
	<g class="st1">
		<rect x="569.7" y="313.9" class="st2" width="64" height="64"/>
		<path d="M633.2,314.4v63h-63v-63H633.2 M634.2,313.4h-65v65h65V313.4L634.2,313.4z"/>
	</g>
	<g class="st1">
		<rect x="633.7" y="313.9" class="st2" width="64" height="64"/>
		<path d="M697.2,314.4v63h-63v-63H697.2 M698.2,313.4h-65v65h65V313.4L698.2,313.4z"/>
	</g>
	<g class="st1">
		<rect x="697.6" y="313.9" class="st2" width="64" height="64"/>
		<path d="M761.1,314.4v63h-63v-63H761.1 M762.1,313.4h-65v65h65V313.4L762.1,313.4z"/>
	</g>
	<g class="st1">
		<rect x="761.6" y="313.9" class="st2" width="64" height="64"/>
		<path d="M825.1,314.4v63h-63v-63H825.1 M826.1,313.4h-65v65h65V313.4L826.1,313.4z"/>
	</g>
	<g class="st1">
		<rect x="825.5" y="313.9" class="st2" width="64" height="64"/>
		<path d="M889,314.4v63h-63v-63H889 M890,313.4h-65v65h65V313.4L890,313.4z"/>
	</g>
	<g class="st1">
		<rect x="-389.5" y="377.9" class="st2" width="64" height="64"/>
		<path d="M-326,378.4v63h-63v-63H-326 M-325,377.4h-65v65h65V377.4L-325,377.4z"/>
	</g>
	<g class="st1">
		<rect x="-325.6" y="377.9" class="st2" width="64" height="64"/>
		<path d="M-262.1,378.4v63h-63v-63H-262.1 M-261.1,377.4H-326v65h65v-65H-261.1z"/>
	</g>
	<g class="st1">
		<rect x="-261.6" y="377.9" class="st2" width="64" height="64"/>
		<path d="M-198.1,378.4v63h-63v-63H-198.1 M-197.1,377.4h-65v65h65V377.4L-197.1,377.4z"/>
	</g>
	<g class="st1">
		<rect x="-197.6" y="377.9" class="st2" width="64" height="64"/>
		<path d="M-134.2,378.4v63h-63v-63H-134.2 M-133.2,377.4h-65v65h65V377.4L-133.2,377.4z"/>
	</g>
	<g class="st1">
		<rect x="-133.7" y="377.9" class="st2" width="64" height="64"/>
		<path d="M-70.2,378.4v63h-63v-63H-70.2 M-69.2,377.4h-65v65h65V377.4L-69.2,377.4z"/>
	</g>
	<g class="st1">
		<rect x="-69.8" y="377.9" class="st2" width="64" height="64"/>
		<path d="M-6.3,378.4v63h-63v-63H-6.3 M-5.3,377.4h-65v65h65V377.4L-5.3,377.4z"/>
	</g>
	<g class="st1">
		<rect x="-5.8" y="377.9" class="st2" width="64" height="64"/>
		<path d="M57.7,378.4v63h-63v-63H57.7 M58.7,377.4h-65v65h65V377.4L58.7,377.4z"/>
	</g>
	<g class="st1">
		<rect x="58.1" y="377.9" class="st2" width="64" height="64"/>
		<path d="M121.6,378.4v63h-63v-63H121.6 M122.6,377.4h-65v65h65V377.4L122.6,377.4z"/>
	</g>
	<g class="st1">
		<rect x="122.1" y="377.9" class="st2" width="64" height="64"/>
		<path d="M185.6,378.4v63h-63v-63H185.6 M186.6,377.4h-65v65h65V377.4L186.6,377.4z"/>
	</g>
	<g class="st1">
		<rect x="186" y="377.9" class="st2" width="64" height="64"/>
		<path d="M249.5,378.4v63h-63v-63H249.5 M250.5,377.4h-65v65h65V377.4L250.5,377.4z"/>
	</g>
	<g class="st1">
		<rect x="250" y="377.9" class="st2" width="64" height="64"/>
		<path d="M313.5,378.4v63h-63v-63H313.5 M314.5,377.4h-65v65h65V377.4L314.5,377.4z"/>
	</g>
	<g class="st1">
		<rect x="313.9" y="377.9" class="st2" width="64" height="64"/>
		<path d="M377.4,378.4v63h-63v-63H377.4 M378.4,377.4h-65v65h65V377.4L378.4,377.4z"/>
	</g>
	<g class="st1">
		<rect x="377.9" y="377.9" class="st2" width="64" height="64"/>
		<path d="M441.4,378.4v63h-63v-63H441.4 M442.4,377.4h-65v65h65V377.4L442.4,377.4z"/>
	</g>
	<g class="st1">
		<rect x="441.8" y="377.9" class="st2" width="64" height="64"/>
		<path d="M505.3,378.4v63h-63v-63H505.3 M506.3,377.4h-65v65h65V377.4L506.3,377.4z"/>
	</g>
	<g class="st1">
		<rect x="505.8" y="377.9" class="st2" width="64" height="64"/>
		<path d="M569.2,378.4v63h-63v-63H569.2 M570.2,377.4h-65v65h65V377.4L570.2,377.4z"/>
	</g>
	<g class="st1">
		<rect x="569.7" y="377.9" class="st2" width="64" height="64"/>
		<path d="M633.2,378.4v63h-63v-63H633.2 M634.2,377.4h-65v65h65V377.4L634.2,377.4z"/>
	</g>
	<g class="st1">
		<rect x="633.7" y="377.9" class="st2" width="64" height="64"/>
		<path d="M697.2,378.4v63h-63v-63H697.2 M698.2,377.4h-65v65h65V377.4L698.2,377.4z"/>
	</g>
	<g class="st1">
		<rect x="697.6" y="377.9" class="st2" width="64" height="64"/>
		<path d="M761.1,378.4v63h-63v-63H761.1 M762.1,377.4h-65v65h65V377.4L762.1,377.4z"/>
	</g>
	<g class="st1">
		<rect x="761.6" y="377.9" class="st2" width="64" height="64"/>
		<path d="M825.1,378.4v63h-63v-63H825.1 M826.1,377.4h-65v65h65V377.4L826.1,377.4z"/>
	</g>
	<g class="st1">
		<rect x="825.5" y="377.9" class="st2" width="64" height="64"/>
		<path d="M889,378.4v63h-63v-63H889 M890,377.4h-65v65h65V377.4L890,377.4z"/>
	</g>
	<g class="st1">
		<rect x="-389.5" y="441.8" class="st2" width="64" height="64"/>
		<path d="M-326,442.3v63h-63v-63H-326 M-325,441.3h-65v65h65V441.3L-325,441.3z"/>
	</g>
	<g class="st1">
		<rect x="-325.6" y="441.8" class="st2" width="64" height="64"/>
		<path d="M-262.1,442.3v63h-63v-63H-262.1 M-261.1,441.3H-326v65h65v-65H-261.1z"/>
	</g>
	<g class="st1">
		<rect x="-261.6" y="441.8" class="st2" width="64" height="64"/>
		<path d="M-198.1,442.3v63h-63v-63H-198.1 M-197.1,441.3h-65v65h65V441.3L-197.1,441.3z"/>
	</g>
	<g class="st1">
		<rect x="-197.6" y="441.8" class="st2" width="64" height="64"/>
		<path d="M-134.2,442.3v63h-63v-63H-134.2 M-133.2,441.3h-65v65h65V441.3L-133.2,441.3z"/>
	</g>
	<g class="st1">
		<rect x="-133.7" y="441.8" class="st2" width="64" height="64"/>
		<path d="M-70.2,442.3v63h-63v-63H-70.2 M-69.2,441.3h-65v65h65V441.3L-69.2,441.3z"/>
	</g>
	<g class="st1">
		<rect x="-69.8" y="441.8" class="st2" width="64" height="64"/>
		<path d="M-6.3,442.3v63h-63v-63H-6.3 M-5.3,441.3h-65v65h65V441.3L-5.3,441.3z"/>
	</g>
	<g class="st1">
		<rect x="-5.8" y="441.8" class="st2" width="64" height="64"/>
		<path d="M57.7,442.3v63h-63v-63H57.7 M58.7,441.3h-65v65h65V441.3L58.7,441.3z"/>
	</g>
	<g class="st1">
		<rect x="58.1" y="441.8" class="st2" width="64" height="64"/>
		<path d="M121.6,442.3v63h-63v-63H121.6 M122.6,441.3h-65v65h65V441.3L122.6,441.3z"/>
	</g>
	<g class="st1">
		<rect x="122.1" y="441.8" class="st2" width="64" height="64"/>
		<path d="M185.6,442.3v63h-63v-63H185.6 M186.6,441.3h-65v65h65V441.3L186.6,441.3z"/>
	</g>
	<g class="st1">
		<rect x="186" y="441.8" class="st2" width="64" height="64"/>
		<path d="M249.5,442.3v63h-63v-63H249.5 M250.5,441.3h-65v65h65V441.3L250.5,441.3z"/>
	</g>
	<g class="st1">
		<rect x="250" y="441.8" class="st2" width="64" height="64"/>
		<path d="M313.5,442.3v63h-63v-63H313.5 M314.5,441.3h-65v65h65V441.3L314.5,441.3z"/>
	</g>
	<g class="st1">
		<rect x="313.9" y="441.8" class="st2" width="64" height="64"/>
		<path d="M377.4,442.3v63h-63v-63H377.4 M378.4,441.3h-65v65h65V441.3L378.4,441.3z"/>
	</g>
	<g class="st1">
		<rect x="377.9" y="441.8" class="st2" width="64" height="64"/>
		<path d="M441.4,442.3v63h-63v-63H441.4 M442.4,441.3h-65v65h65V441.3L442.4,441.3z"/>
	</g>
	<g class="st1">
		<rect x="441.8" y="441.8" class="st2" width="64" height="64"/>
		<path d="M505.3,442.3v63h-63v-63H505.3 M506.3,441.3h-65v65h65V441.3L506.3,441.3z"/>
	</g>
	<g class="st1">
		<rect x="505.8" y="441.8" class="st2" width="64" height="64"/>
		<path d="M569.2,442.3v63h-63v-63H569.2 M570.2,441.3h-65v65h65V441.3L570.2,441.3z"/>
	</g>
	<g class="st1">
		<rect x="569.7" y="441.8" class="st2" width="64" height="64"/>
		<path d="M633.2,442.3v63h-63v-63H633.2 M634.2,441.3h-65v65h65V441.3L634.2,441.3z"/>
	</g>
	<g class="st1">
		<rect x="633.7" y="441.8" class="st2" width="64" height="64"/>
		<path d="M697.2,442.3v63h-63v-63H697.2 M698.2,441.3h-65v65h65V441.3L698.2,441.3z"/>
	</g>
	<g class="st1">
		<rect x="697.6" y="441.8" class="st2" width="64" height="64"/>
		<path d="M761.1,442.3v63h-63v-63H761.1 M762.1,441.3h-65v65h65V441.3L762.1,441.3z"/>
	</g>
	<g class="st1">
		<rect x="761.6" y="441.8" class="st2" width="64" height="64"/>
		<path d="M825.1,442.3v63h-63v-63H825.1 M826.1,441.3h-65v65h65V441.3L826.1,441.3z"/>
	</g>
	<g class="st1">
		<rect x="825.5" y="441.8" class="st2" width="64" height="64"/>
		<path d="M889,442.3v63h-63v-63H889 M890,441.3h-65v65h65V441.3L890,441.3z"/>
	</g>
	<g class="st1">
		<rect x="-389.5" y="505.7" class="st2" width="64" height="64"/>
		<path d="M-326,506.2v63h-63v-63H-326 M-325,505.2h-65v65h65V505.2L-325,505.2z"/>
	</g>
	<g class="st1">
		<rect x="-325.6" y="505.7" class="st2" width="64" height="64"/>
		<path d="M-262.1,506.2v63h-63v-63H-262.1 M-261.1,505.2H-326v65h65v-65H-261.1z"/>
	</g>
	<g class="st1">
		<rect x="-261.6" y="505.7" class="st2" width="64" height="64"/>
		<path d="M-198.1,506.2v63h-63v-63H-198.1 M-197.1,505.2h-65v65h65V505.2L-197.1,505.2z"/>
	</g>
	<g class="st1">
		<rect x="-197.6" y="505.7" class="st2" width="64" height="64"/>
		<path d="M-134.2,506.2v63h-63v-63H-134.2 M-133.2,505.2h-65v65h65V505.2L-133.2,505.2z"/>
	</g>
	<g class="st1">
		<rect x="-133.7" y="505.7" class="st2" width="64" height="64"/>
		<path d="M-70.2,506.2v63h-63v-63H-70.2 M-69.2,505.2h-65v65h65V505.2L-69.2,505.2z"/>
	</g>
	<g class="st1">
		<rect x="-69.8" y="505.7" class="st2" width="64" height="64"/>
		<path d="M-6.3,506.2v63h-63v-63H-6.3 M-5.3,505.2h-65v65h65V505.2L-5.3,505.2z"/>
	</g>
	<g class="st1">
		<rect x="-5.8" y="505.7" class="st2" width="64" height="64"/>
		<path d="M57.7,506.2v63h-63v-63H57.7 M58.7,505.2h-65v65h65V505.2L58.7,505.2z"/>
	</g>
	<g class="st1">
		<rect x="58.1" y="505.7" class="st2" width="64" height="64"/>
		<path d="M121.6,506.2v63h-63v-63H121.6 M122.6,505.2h-65v65h65V505.2L122.6,505.2z"/>
	</g>
	<g class="st1">
		<rect x="122.1" y="505.7" class="st2" width="64" height="64"/>
		<path d="M185.6,506.2v63h-63v-63H185.6 M186.6,505.2h-65v65h65V505.2L186.6,505.2z"/>
	</g>
	<g class="st1">
		<rect x="186" y="505.7" class="st2" width="64" height="64"/>
		<path d="M249.5,506.2v63h-63v-63H249.5 M250.5,505.2h-65v65h65V505.2L250.5,505.2z"/>
	</g>
	<g class="st1">
		<rect x="250" y="505.7" class="st2" width="64" height="64"/>
		<path d="M313.5,506.2v63h-63v-63H313.5 M314.5,505.2h-65v65h65V505.2L314.5,505.2z"/>
	</g>
	<g class="st1">
		<rect x="313.9" y="505.7" class="st2" width="64" height="64"/>
		<path d="M377.4,506.2v63h-63v-63H377.4 M378.4,505.2h-65v65h65V505.2L378.4,505.2z"/>
	</g>
	<g class="st1">
		<rect x="377.9" y="505.7" class="st2" width="64" height="64"/>
		<path d="M441.4,506.2v63h-63v-63H441.4 M442.4,505.2h-65v65h65V505.2L442.4,505.2z"/>
	</g>
	<g class="st1">
		<rect x="441.8" y="505.7" class="st2" width="64" height="64"/>
		<path d="M505.3,506.2v63h-63v-63H505.3 M506.3,505.2h-65v65h65V505.2L506.3,505.2z"/>
	</g>
	<g class="st1">
		<rect x="505.8" y="505.7" class="st2" width="64" height="64"/>
		<path d="M569.2,506.2v63h-63v-63H569.2 M570.2,505.2h-65v65h65V505.2L570.2,505.2z"/>
	</g>
	<g class="st1">
		<rect x="569.7" y="505.7" class="st2" width="64" height="64"/>
		<path d="M633.2,506.2v63h-63v-63H633.2 M634.2,505.2h-65v65h65V505.2L634.2,505.2z"/>
	</g>
	<g class="st1">
		<rect x="633.7" y="505.7" class="st2" width="64" height="64"/>
		<path d="M697.2,506.2v63h-63v-63H697.2 M698.2,505.2h-65v65h65V505.2L698.2,505.2z"/>
	</g>
	<g class="st1">
		<rect x="697.6" y="505.7" class="st2" width="64" height="64"/>
		<path d="M761.1,506.2v63h-63v-63H761.1 M762.1,505.2h-65v65h65V505.2L762.1,505.2z"/>
	</g>
	<g class="st1">
		<rect x="761.6" y="505.7" class="st2" width="64" height="64"/>
		<path d="M825.1,506.2v63h-63v-63H825.1 M826.1,505.2h-65v65h65V505.2L826.1,505.2z"/>
	</g>
	<g class="st1">
		<rect x="825.5" y="505.7" class="st2" width="64" height="64"/>
		<path d="M889,506.2v63h-63v-63H889 M890,505.2h-65v65h65V505.2L890,505.2z"/>
	</g>
	<g class="st1">
		<rect x="-389.5" y="569.7" class="st2" width="64" height="64"/>
		<path d="M-326,570.2v63h-63v-63H-326 M-325,569.2h-65v65h65V569.2L-325,569.2z"/>
	</g>
	<g class="st1">
		<rect x="-325.6" y="569.7" class="st2" width="64" height="64"/>
		<path d="M-262.1,570.2v63h-63v-63H-262.1 M-261.1,569.2H-326v65h65v-65H-261.1z"/>
	</g>
	<g class="st1">
		<rect x="-261.6" y="569.7" class="st2" width="64" height="64"/>
		<path d="M-198.1,570.2v63h-63v-63H-198.1 M-197.1,569.2h-65v65h65V569.2L-197.1,569.2z"/>
	</g>
	<g class="st1">
		<rect x="-197.6" y="569.7" class="st2" width="64" height="64"/>
		<path d="M-134.2,570.2v63h-63v-63H-134.2 M-133.2,569.2h-65v65h65V569.2L-133.2,569.2z"/>
	</g>
	<g class="st1">
		<rect x="-133.7" y="569.7" class="st2" width="64" height="64"/>
		<path d="M-70.2,570.2v63h-63v-63H-70.2 M-69.2,569.2h-65v65h65V569.2L-69.2,569.2z"/>
	</g>
	<g class="st1">
		<rect x="-69.8" y="569.7" class="st2" width="64" height="64"/>
		<path d="M-6.3,570.2v63h-63v-63H-6.3 M-5.3,569.2h-65v65h65V569.2L-5.3,569.2z"/>
	</g>
	<g class="st1">
		<rect x="-5.8" y="569.7" class="st2" width="64" height="64"/>
		<path d="M57.7,570.2v63h-63v-63H57.7 M58.7,569.2h-65v65h65V569.2L58.7,569.2z"/>
	</g>
	<g class="st1">
		<rect x="58.1" y="569.7" class="st2" width="64" height="64"/>
		<path d="M121.6,570.2v63h-63v-63H121.6 M122.6,569.2h-65v65h65V569.2L122.6,569.2z"/>
	</g>
	<g class="st1">
		<rect x="122.1" y="569.7" class="st2" width="64" height="64"/>
		<path d="M185.6,570.2v63h-63v-63H185.6 M186.6,569.2h-65v65h65V569.2L186.6,569.2z"/>
	</g>
	<g class="st1">
		<rect x="186" y="569.7" class="st2" width="64" height="64"/>
		<path d="M249.5,570.2v63h-63v-63H249.5 M250.5,569.2h-65v65h65V569.2L250.5,569.2z"/>
	</g>
	<g class="st1">
		<rect x="250" y="569.7" class="st2" width="64" height="64"/>
		<path d="M313.5,570.2v63h-63v-63H313.5 M314.5,569.2h-65v65h65V569.2L314.5,569.2z"/>
	</g>
	<g class="st1">
		<rect x="313.9" y="569.7" class="st2" width="64" height="64"/>
		<path d="M377.4,570.2v63h-63v-63H377.4 M378.4,569.2h-65v65h65V569.2L378.4,569.2z"/>
	</g>
	<g class="st1">
		<rect x="377.9" y="569.7" class="st2" width="64" height="64"/>
		<path d="M441.4,570.2v63h-63v-63H441.4 M442.4,569.2h-65v65h65V569.2L442.4,569.2z"/>
	</g>
	<g class="st1">
		<rect x="441.8" y="569.7" class="st2" width="64" height="64"/>
		<path d="M505.3,570.2v63h-63v-63H505.3 M506.3,569.2h-65v65h65V569.2L506.3,569.2z"/>
	</g>
	<g class="st1">
		<rect x="505.8" y="569.7" class="st2" width="64" height="64"/>
		<path d="M569.2,570.2v63h-63v-63H569.2 M570.2,569.2h-65v65h65V569.2L570.2,569.2z"/>
	</g>
	<g class="st1">
		<rect x="569.7" y="569.7" class="st2" width="64" height="64"/>
		<path d="M633.2,570.2v63h-63v-63H633.2 M634.2,569.2h-65v65h65V569.2L634.2,569.2z"/>
	</g>
	<g class="st1">
		<rect x="633.7" y="569.7" class="st2" width="64" height="64"/>
		<path d="M697.2,570.2v63h-63v-63H697.2 M698.2,569.2h-65v65h65V569.2L698.2,569.2z"/>
	</g>
	<g class="st1">
		<rect x="697.6" y="569.7" class="st2" width="64" height="64"/>
		<path d="M761.1,570.2v63h-63v-63H761.1 M762.1,569.2h-65v65h65V569.2L762.1,569.2z"/>
	</g>
	<g class="st1">
		<rect x="761.6" y="569.7" class="st2" width="64" height="64"/>
		<path d="M825.1,570.2v63h-63v-63H825.1 M826.1,569.2h-65v65h65V569.2L826.1,569.2z"/>
	</g>
	<g class="st1">
		<rect x="825.5" y="569.7" class="st2" width="64" height="64"/>
		<path d="M889,570.2v63h-63v-63H889 M890,569.2h-65v65h65V569.2L890,569.2z"/>
	</g>
	<g class="st1">
		<rect x="-389.5" y="633.6" class="st2" width="64" height="64"/>
		<path d="M-326,634.1v63h-63v-63H-326 M-325,633.1h-65v65h65V633.1L-325,633.1z"/>
	</g>
	<g class="st1">
		<rect x="-325.6" y="633.6" class="st2" width="64" height="64"/>
		<path d="M-262.1,634.1v63h-63v-63H-262.1 M-261.1,633.1H-326v65h65v-65H-261.1z"/>
	</g>
	<g class="st1">
		<rect x="-261.6" y="633.6" class="st2" width="64" height="64"/>
		<path d="M-198.1,634.1v63h-63v-63H-198.1 M-197.1,633.1h-65v65h65V633.1L-197.1,633.1z"/>
	</g>
	<g class="st1">
		<rect x="-197.6" y="633.6" class="st2" width="64" height="64"/>
		<path d="M-134.2,634.1v63h-63v-63H-134.2 M-133.2,633.1h-65v65h65V633.1L-133.2,633.1z"/>
	</g>
	<g class="st1">
		<rect x="-133.7" y="633.6" class="st2" width="64" height="64"/>
		<path d="M-70.2,634.1v63h-63v-63H-70.2 M-69.2,633.1h-65v65h65V633.1L-69.2,633.1z"/>
	</g>
	<g class="st1">
		<rect x="-69.8" y="633.6" class="st2" width="64" height="64"/>
		<path d="M-6.3,634.1v63h-63v-63H-6.3 M-5.3,633.1h-65v65h65V633.1L-5.3,633.1z"/>
	</g>
	<g class="st1">
		<rect x="-5.8" y="633.6" class="st2" width="64" height="64"/>
		<path d="M57.7,634.1v63h-63v-63H57.7 M58.7,633.1h-65v65h65V633.1L58.7,633.1z"/>
	</g>
	<g class="st1">
		<rect x="58.1" y="633.6" class="st2" width="64" height="64"/>
		<path d="M121.6,634.1v63h-63v-63H121.6 M122.6,633.1h-65v65h65V633.1L122.6,633.1z"/>
	</g>
	<g class="st1">
		<rect x="122.1" y="633.6" class="st2" width="64" height="64"/>
		<path d="M185.6,634.1v63h-63v-63H185.6 M186.6,633.1h-65v65h65V633.1L186.6,633.1z"/>
	</g>
	<g class="st1">
		<rect x="186" y="633.6" class="st2" width="64" height="64"/>
		<path d="M249.5,634.1v63h-63v-63H249.5 M250.5,633.1h-65v65h65V633.1L250.5,633.1z"/>
	</g>
	<g class="st1">
		<rect x="250" y="633.6" class="st2" width="64" height="64"/>
		<path d="M313.5,634.1v63h-63v-63H313.5 M314.5,633.1h-65v65h65V633.1L314.5,633.1z"/>
	</g>
	<g class="st1">
		<rect x="313.9" y="633.6" class="st2" width="64" height="64"/>
		<path d="M377.4,634.1v63h-63v-63H377.4 M378.4,633.1h-65v65h65V633.1L378.4,633.1z"/>
	</g>
	<g class="st1">
		<rect x="377.9" y="633.6" class="st2" width="64" height="64"/>
		<path d="M441.4,634.1v63h-63v-63H441.4 M442.4,633.1h-65v65h65V633.1L442.4,633.1z"/>
	</g>
	<g class="st1">
		<rect x="441.8" y="633.6" class="st2" width="64" height="64"/>
		<path d="M505.3,634.1v63h-63v-63H505.3 M506.3,633.1h-65v65h65V633.1L506.3,633.1z"/>
	</g>
	<g class="st1">
		<rect x="505.8" y="633.6" class="st2" width="64" height="64"/>
		<path d="M569.2,634.1v63h-63v-63H569.2 M570.2,633.1h-65v65h65V633.1L570.2,633.1z"/>
	</g>
	<g class="st1">
		<rect x="569.7" y="633.6" class="st2" width="64" height="64"/>
		<path d="M633.2,634.1v63h-63v-63H633.2 M634.2,633.1h-65v65h65V633.1L634.2,633.1z"/>
	</g>
	<g class="st1">
		<rect x="633.7" y="633.6" class="st2" width="64" height="64"/>
		<path d="M697.2,634.1v63h-63v-63H697.2 M698.2,633.1h-65v65h65V633.1L698.2,633.1z"/>
	</g>
	<g class="st1">
		<rect x="697.6" y="633.6" class="st2" width="64" height="64"/>
		<path d="M761.1,634.1v63h-63v-63H761.1 M762.1,633.1h-65v65h65V633.1L762.1,633.1z"/>
	</g>
	<g class="st1">
		<rect x="761.6" y="633.6" class="st2" width="64" height="64"/>
		<path d="M825.1,634.1v63h-63v-63H825.1 M826.1,633.1h-65v65h65V633.1L826.1,633.1z"/>
	</g>
	<g class="st1">
		<rect x="825.5" y="633.6" class="st2" width="64" height="64"/>
		<path d="M889,634.1v63h-63v-63H889 M890,633.1h-65v65h65V633.1L890,633.1z"/>
	</g>
	<g class="st1">
		<rect x="-389.5" y="697.5" class="st2" width="64" height="64"/>
		<path d="M-326,698v63h-63v-63H-326 M-325,697h-65v65h65V697L-325,697z"/>
	</g>
	<g class="st1">
		<rect x="-325.6" y="697.5" class="st2" width="64" height="64"/>
		<path d="M-262.1,698v63h-63v-63H-262.1 M-261.1,697H-326v65h65v-65H-261.1z"/>
	</g>
	<g class="st1">
		<rect x="-261.6" y="697.5" class="st2" width="64" height="64"/>
		<path d="M-198.1,698v63h-63v-63H-198.1 M-197.1,697h-65v65h65V697L-197.1,697z"/>
	</g>
	<g class="st1">
		<rect x="-197.6" y="697.5" class="st2" width="64" height="64"/>
		<path d="M-134.2,698v63h-63v-63H-134.2 M-133.2,697h-65v65h65V697L-133.2,697z"/>
	</g>
	<g class="st1">
		<rect x="-133.7" y="697.5" class="st2" width="64" height="64"/>
		<path d="M-70.2,698v63h-63v-63H-70.2 M-69.2,697h-65v65h65V697L-69.2,697z"/>
	</g>
	<g class="st1">
		<rect x="-69.8" y="697.5" class="st2" width="64" height="64"/>
		<path d="M-6.3,698v63h-63v-63H-6.3 M-5.3,697h-65v65h65V697L-5.3,697z"/>
	</g>
	<g class="st1">
		<rect x="-5.8" y="697.5" class="st2" width="64" height="64"/>
		<path d="M57.7,698v63h-63v-63H57.7 M58.7,697h-65v65h65V697L58.7,697z"/>
	</g>
	<g class="st1">
		<rect x="58.1" y="697.5" class="st2" width="64" height="64"/>
		<path d="M121.6,698v63h-63v-63H121.6 M122.6,697h-65v65h65V697L122.6,697z"/>
	</g>
	<g class="st1">
		<rect x="122.1" y="697.5" class="st2" width="64" height="64"/>
		<path d="M185.6,698v63h-63v-63H185.6 M186.6,697h-65v65h65V697L186.6,697z"/>
	</g>
	<g class="st1">
		<rect x="186" y="697.5" class="st2" width="64" height="64"/>
		<path d="M249.5,698v63h-63v-63H249.5 M250.5,697h-65v65h65V697L250.5,697z"/>
	</g>
	<g class="st1">
		<rect x="250" y="697.5" class="st2" width="64" height="64"/>
		<path d="M313.5,698v63h-63v-63H313.5 M314.5,697h-65v65h65V697L314.5,697z"/>
	</g>
	<g class="st1">
		<rect x="313.9" y="697.5" class="st2" width="64" height="64"/>
		<path d="M377.4,698v63h-63v-63H377.4 M378.4,697h-65v65h65V697L378.4,697z"/>
	</g>
	<g class="st1">
		<rect x="377.9" y="697.5" class="st2" width="64" height="64"/>
		<path d="M441.4,698v63h-63v-63H441.4 M442.4,697h-65v65h65V697L442.4,697z"/>
	</g>
	<g class="st1">
		<rect x="441.8" y="697.5" class="st2" width="64" height="64"/>
		<path d="M505.3,698v63h-63v-63H505.3 M506.3,697h-65v65h65V697L506.3,697z"/>
	</g>
	<g class="st1">
		<rect x="505.8" y="697.5" class="st2" width="64" height="64"/>
		<path d="M569.2,698v63h-63v-63H569.2 M570.2,697h-65v65h65V697L570.2,697z"/>
	</g>
	<g class="st1">
		<rect x="569.7" y="697.5" class="st2" width="64" height="64"/>
		<path d="M633.2,698v63h-63v-63H633.2 M634.2,697h-65v65h65V697L634.2,697z"/>
	</g>
	<g class="st1">
		<rect x="633.7" y="697.5" class="st2" width="64" height="64"/>
		<path d="M697.2,698v63h-63v-63H697.2 M698.2,697h-65v65h65V697L698.2,697z"/>
	</g>
	<g class="st1">
		<rect x="697.6" y="697.5" class="st2" width="64" height="64"/>
		<path d="M761.1,698v63h-63v-63H761.1 M762.1,697h-65v65h65V697L762.1,697z"/>
	</g>
	<g class="st1">
		<rect x="761.6" y="697.5" class="st2" width="64" height="64"/>
		<path d="M825.1,698v63h-63v-63H825.1 M826.1,697h-65v65h65V697L826.1,697z"/>
	</g>
	<g class="st1">
		<rect x="825.5" y="697.5" class="st2" width="64" height="64"/>
		<path d="M889,698v63h-63v-63H889 M890,697h-65v65h65V697L890,697z"/>
	</g>
</g>
<polyline class="st3" points="21.7,290.3 210.2,290.3 210.2,478.3 "/>
<line class="st3" x1="210.2" y1="290.3" x2="22" y2="478.7"/>
<polyline class="st3" points="479.4,208.9 290.9,208.9 290.9,20.9 "/>
<line class="st3" x1="290.9" y1="208.9" x2="479.1" y2="20.6"/>
</svg>
